<?xml version="1.0" encoding="utf-8"?>
<!-- Generator: Adobe Illustrator 16.0.0, SVG Export Plug-In . SVG Version: 6.00 Build 0)  -->
<!DOCTYPE svg PUBLIC "-//W3C//DTD SVG 1.1//EN" "http://www.w3.org/Graphics/SVG/1.1/DTD/svg11.dtd">
<svg version="1.1" id="Layer_1" xmlns="http://www.w3.org/2000/svg" xmlns:xlink="http://www.w3.org/1999/xlink" x="0px" y="0px"
	 width="250px" height="250px" viewBox="0 0 250 250" enable-background="new 0 0 250 250" xml:space="preserve">
<g>
	<g>
		<path fill="#54ACD0" d="M149.752,130.254c0.592-0.592,0.986-1.479,1.085-2.268c0.099-1.086-0.296-1.973-1.085-2.86L124.605,99.88
			c-0.493-0.493-1.479-1.183-2.663-1.183c-0.789,0-1.676,0.295-2.564,1.183l-12.918,13.018c-0.888,0.887-2.071,3.155,0,5.227
			l25.146,25.147c0.888,0.887,3.156,2.07,5.227,0L149.752,130.254z"/>
	</g>
	<g>
		<path fill="#8FCFD7" d="M165.925,103.924L155.373,93.47c0,0-2.563-2.564-5.227,0l-14.201,14.201l15.681,15.582
			c1.084,1.085,1.577,2.169,1.774,3.353l6.903-6.903c-0.098-0.887-0.197-1.874-0.197-2.86
			C160.008,110.629,161.98,106.389,165.925,103.924"/>
	</g>
	<g>
		<path fill="#636363" d="M202.314,128.676c-9.861,0-11.834-3.845-11.834-9.959v-14.792h5.522c0.197,0,0.395,0.197,0.395,0.394
			v14.299c0,3.353,0.395,5.917,5.917,5.917c4.931,0,5.818-1.972,5.818-5.917v-14.693h5.917v14.792
			C214.05,125.027,212.077,128.676,202.314,128.676z M248.27,128.381h-5.917v-0.197l0.395-17.85l-6.509,18.047h-6.213v-0.1
			l-6.706-18.046l0.592,18.146h-6.213v-24.457h8.58v0.099l6.607,18.145l6.706-18.244h8.579v24.457H248.27z M187.621,128.381h-12.229
			c-8.678,0-12.918-3.847-12.918-11.834c0-8.678,4.043-12.721,12.918-12.721h12.229v4.536h-12.229c-2.859,0-6.212,0.888-6.212,7.889
			c0,5.128,1.874,7.298,6.212,7.298h6.214v-5.325h-7.495v-4.635h13.608v14.793H187.621z"/>
	</g>
	<path fill="#636363" d="M112.179,128.479h-7.692l-0.099-0.098l-8.875-8.58l-8.481,8.777H79.34l12.327-12.722l-12.524-12.426h7.988
		l8.284,8.284l8.382-8.284h7.988l-12.229,12.327L112.179,128.479z M78.453,128.381h-12.13c-2.859,0-5.325-1.283-7.396-3.847
		c-1.972-2.564-3.057-5.621-3.057-9.27c0-3.254,0.986-6.114,3.057-8.481s4.537-3.649,7.396-3.649h12.426l-0.296,5.522H67.309
		c-1.479,0-2.761,0.69-3.846,2.071c-0.395,0.592-0.79,1.184-1.085,1.874h13.609l-0.69,6.213h-0.099l-12.82-0.099
		c0.295,0.69,0.592,1.38,1.085,1.972c1.084,1.38,2.367,1.972,3.846,1.972h11.735v0.198L78.453,128.381z"/>
	<path fill="#636363" d="M25.989,107.08c-2.269-2.465-5.128-3.649-8.284-3.649h-4.241c-3.254,0-6.016,1.282-8.284,3.747
		c-2.268,2.367-3.452,5.424-3.452,8.875s1.184,6.41,3.452,8.875c2.268,2.466,5.128,3.649,8.284,3.649h4.241
		c3.254,0,6.015-1.283,8.284-3.748c2.268-2.465,3.452-5.424,3.452-8.875S28.257,109.545,25.989,107.08z M22.241,121.379
		c-1.282,1.479-2.761,2.268-4.536,2.268h-4.241c-1.775,0-3.254-0.789-4.537-2.268c-1.282-1.479-1.874-3.254-1.874-5.326
		c0-2.07,0.592-3.846,1.874-5.424c1.282-1.479,2.762-2.268,4.537-2.268h4.241c1.775,0,3.353,0.789,4.536,2.268
		c1.184,1.479,1.875,3.354,1.875,5.424C24.116,118.125,23.425,119.9,22.241,121.379z"/>
	<path fill="#636363" d="M52.023,106.882c-2.268-2.465-4.931-3.748-8.086-3.748H30.033v25.246h13.904
		c3.156,0,5.819-1.283,8.086-3.748c2.268-2.466,3.353-5.424,3.353-8.875C55.376,112.405,54.292,109.348,52.023,106.882z
		 M48.276,121.182c-1.381,1.479-3.057,2.268-5.029,2.268H35.16v-15.286h8.087c1.972,0,3.648,0.789,5.029,2.269
		c1.38,1.479,2.071,3.353,2.071,5.424C50.347,117.927,49.657,119.702,48.276,121.182z"/>
</g>
<g>
	<path fill="#0E9EA9" d="M194.129,133.607c0,0-4.043,0-4.043,4.043v15.977c0,0,0,4.043,4.043,4.043h49.9c0,0,4.043,0,4.043-4.043
		V137.65c0,0,0-4.043-4.043-4.043H194.129z"/>
</g>
<g>
	<path fill="#FFFFFF" d="M206.653,155.006v-8.973l-2.663,4.635h-2.958l-2.662-4.635v8.973h-4.635v-18.637h4.535l4.241,8.283
		l4.241-8.283h4.535v18.637H206.653z"/>
	<path fill="#FFFFFF" d="M214.938,155.006v-18.637h12.721v4.043h-8.086v3.156h6.903v4.043h-6.903v3.254h8.086v4.043h-12.721V155.006
		z"/>
	<path fill="#FFFFFF" d="M243.93,151.852c-1.281,2.07-3.254,3.154-6.015,3.154h-6.903v-18.637h6.903
		c2.761,0,4.733,1.084,6.015,3.154c0.889,1.48,0.889,2.959,0.889,6.213C244.818,148.893,244.818,150.371,243.93,151.852z
		 M239.789,141.496c-0.396-0.592-1.086-1.084-2.17-1.084h-1.973v10.453h1.973c1.184,0,1.774-0.395,2.17-1.086
		c0.394-0.492,0.493-0.984,0.493-4.24C240.282,142.482,240.085,141.988,239.789,141.496z"/>
</g>
</svg>
