<?xml version="1.0" encoding="utf-8"?>
<!-- Generator: Adobe Illustrator 19.0.0, SVG Export Plug-In . SVG Version: 6.00 Build 0)  -->
<svg version="1.1" id="katman_1" xmlns="http://www.w3.org/2000/svg" xmlns:xlink="http://www.w3.org/1999/xlink" x="0px" y="0px"
	 viewBox="0 0 141.7 141.7" style="enable-background:new 0 0 141.7 141.7;" xml:space="preserve">
<style type="text/css">
	.st0{fill:#3056A3;}
	.st1{fill:#E52421;}
	.st2{fill:#606060;}
</style>
<g id="XMLID_142_">
	<path id="XMLID_194_" class="st0" d="M29.9,76.9c0.1,0,0.3-0.1,0.4-0.2c0.5-0.5,0.9-1.1,1.3-1.7c0.2-0.2,0.9-1.2,1.2-1.2h4.6
		c0.3,0,0.5-0.4,0.5-0.6c0-0.9,0-1,0-2.2h-3.3c2.1-2.7,4.5-5.6,6.6-8.2c0.1,0,0.1,0,0.1,0v3.4c0,0.4,0.3,0.7,0.7,0.7h3.3v-7.5
		c0-0.2-0.2-0.4-0.4-0.4c-1.8,0-3.6,0-5.3,0c-0.3,0-0.5,0.1-0.7,0.3c-3.7,4.7-7.3,9.3-11,14c-0.9,1.2-1.8,2.3-2.7,3.5
		c0.1,0,0.1,0.1,0.1,0.1C26.9,76.9,28.4,77,29.9,76.9"/>
	<path id="XMLID_193_" class="st0" d="M118.8,66.4c-0.2-0.8-0.6-1.4-1.1-1.9c-0.5-0.5-1.2-0.8-2.1-1c-0.9-0.2-2-0.3-3.3-0.3h-4.7
		c-1.3,0-2.4,0.1-3.3,0.3c-0.9,0.2-1.6,0.6-2.1,1c-0.5,0.5-0.9,1.1-1.1,1.9c-0.2,0.8-0.3,1.7-0.3,2.9v8h1.6c1.2,0,2.3-1,2.3-2.3
		v-5.6c0-0.6,0-1.1,0.1-1.4c0.1-0.4,0.3-0.7,0.5-0.9c0.2-0.2,0.6-0.4,1-0.5c0.4-0.1,0.9-0.1,1.5-0.1h4.2c0.6,0,1.1,0,1.5,0.1
		c0.4,0.1,0.7,0.2,1,0.5c0.2,0.2,0.4,0.5,0.5,0.9c0.1,0.4,0.1,0.9,0.1,1.4V75c0,1.3,1,2.3,2.3,2.3h1.5v-8
		C119.2,68.2,119.1,67.2,118.8,66.4"/>
	<path id="XMLID_190_" class="st1" d="M38.9,68.6v7.8c0,0.3,0.2,0.5,0.5,0.5h8.4v-8.3c0-0.4-0.3-0.7-0.7-0.7h-7.7
		C39.1,68,38.9,68.3,38.9,68.6 M40,71.4h2.4v-2.4h2.2v2.4h2.4v2.2h-2.4V76h-2.2v-2.4H40V71.4z"/>
	<path id="XMLID_189_" class="st0" d="M63.8,77c0.6-0.1,1.1-0.3,1.5-0.6c0.4-0.3,0.6-0.7,0.7-1.2c0.1-0.5,0.2-1.1,0.2-1.8v-0.7
		c0-0.7-0.1-1.4-0.2-1.9c-0.1-0.5-0.3-0.9-0.7-1.2c-0.3-0.3-0.8-0.6-1.4-0.7c-0.6-0.1-1.3-0.2-2.2-0.2H54c-0.3,0-0.6-0.1-0.8-0.2
		C53.1,68.3,53,68,53,67.6V67c0-0.4,0.1-0.6,0.2-0.7c0.2-0.1,0.4-0.2,0.8-0.2H62v-1.7c0-0.7-0.6-1.3-1.3-1.3h-7.6
		c-0.8,0-1.4,0.1-1.9,0.2c-0.5,0.1-0.9,0.3-1.2,0.6c-0.3,0.3-0.5,0.6-0.6,1c-0.1,0.4-0.2,0.9-0.2,1.5v1c0,0.6,0,1.2,0.1,1.6
		c0.1,0.5,0.3,0.9,0.6,1.2c0.3,0.3,0.7,0.6,1.2,0.7c0.5,0.2,1.1,0.2,1.9,0.2H61c0.5,0,0.8,0.1,1,0.2c0.2,0.1,0.3,0.5,0.3,1v0.5
		c0,0.5-0.1,0.8-0.3,1c-0.2,0.2-0.6,0.3-1.1,0.3H50.7c-0.8,0-1.5,0.7-1.5,1.5v1.6h12.1C62.4,77.2,63.2,77.1,63.8,77"/>
	<path id="XMLID_163_" class="st0" d="M98.7,63.7h-4v12.1c0,0.9,0.7,1.6,1.6,1.6h2.3L98.7,63.7"/>
	<path id="XMLID_162_" class="st0" d="M70.7,75l0.1-6.3c0-0.9,0.2-1.5,0.5-1.8c0.3-0.3,0.9-0.5,1.7-0.5h2.5c0.6,0,1.1,0,1.5,0.1
		c0.4,0.1,0.7,0.2,0.9,0.4c0.2,0.2,0.4,0.4,0.4,0.7c0.1,0.3,0.1,0.6,0.1,1.1v8.1c0,0.2,0.2,0.4,0.4,0.4h2.6c0.2,0,0.4-0.2,0.4-0.4
		v-8.1c0-0.4,0-0.8,0.1-1.1c0.1-0.3,0.2-0.5,0.5-0.7c0.2-0.2,0.5-0.3,0.9-0.4c0.4-0.1,0.8-0.1,1.4-0.1h2.5c0.7,0,1.3,0.2,1.6,0.5
		c0.3,0.3,0.5,0.9,0.5,1.8V76c0,0.7,0.6,1.3,1.3,1.3h2.6v-9.1c0-0.9-0.1-1.6-0.3-2.3c-0.2-0.6-0.5-1.2-0.9-1.6
		c-0.4-0.4-0.9-0.7-1.6-0.9c-0.6-0.2-1.4-0.3-2.4-0.3h-3.5c-1.4,0-2.4,0.2-3.1,0.6c-0.7,0.4-1.1,1-1.4,1.9c-0.1-0.4-0.3-0.8-0.5-1.1
		c-0.2-0.3-0.5-0.6-0.9-0.8c-0.4-0.2-0.8-0.4-1.3-0.5c-0.5-0.1-1.1-0.2-1.8-0.2h-3.4c-0.9,0-1.7,0.1-2.4,0.3
		c-0.6,0.2-1.2,0.5-1.6,0.9c-0.4,0.4-0.7,0.9-0.9,1.6c-0.2,0.6-0.3,1.4-0.3,2.3L67,77.3h1.5C69.7,77.3,70.7,76.3,70.7,75"/>
	<path id="XMLID_161_" class="st0" d="M21.7,81.3v1.1h69.5c1,0,1.9-0.8,1.9-1.9v-1.1H23.6C22.6,79.4,21.7,80.3,21.7,81.3"/>
	<path id="XMLID_160_" class="st0" d="M97.2,59h-2.5v3.4c0.1,0,0.7,0,1.6,0h2.3v-1.9C98.7,59.7,98.1,59,97.2,59"/>
	<path id="XMLID_159_" class="st2" d="M94.3,80.8c0,0,0,0.1,0.1,0.1c0.1,0,0.1,0.1,0.2,0.1c0.1,0,0.2,0,0.3,0.1
		c0.1,0,0.2,0.1,0.2,0.2c0.1,0.1,0.1,0.2,0.1,0.3c0,0.2-0.1,0.3-0.2,0.4c-0.1,0.1-0.3,0.1-0.5,0.1c-0.4,0-0.7-0.1-0.8-0.4l0.4-0.2
		c0.1,0.1,0.2,0.2,0.4,0.2c0.2,0,0.3,0,0.3-0.1c0,0,0-0.1-0.1-0.1c-0.1,0-0.1-0.1-0.2-0.1c-0.1,0-0.2-0.1-0.3-0.1
		c-0.1,0-0.2-0.1-0.2-0.2c-0.1-0.1-0.1-0.2-0.1-0.3c0-0.2,0.1-0.3,0.2-0.4c0.1-0.1,0.3-0.1,0.5-0.1c0.2,0,0.3,0,0.4,0.1
		c0.1,0.1,0.2,0.2,0.3,0.3l-0.4,0.2c-0.1-0.1-0.2-0.2-0.3-0.2c-0.1,0-0.1,0-0.2,0C94.3,80.7,94.3,80.8,94.3,80.8"/>
	<path id="XMLID_158_" class="st2" d="M96.5,82.1c-0.3,0-0.5-0.1-0.7-0.3c-0.2-0.2-0.3-0.4-0.3-0.6c0-0.3,0.1-0.5,0.3-0.6
		c0.2-0.2,0.4-0.3,0.7-0.3c0.2,0,0.4,0,0.5,0.1c0.2,0.1,0.3,0.2,0.3,0.3l-0.4,0.2c0-0.1-0.1-0.1-0.2-0.2c-0.1,0-0.2-0.1-0.3-0.1
		c-0.1,0-0.3,0-0.4,0.1C96,80.9,96,81.1,96,81.2c0,0.1,0,0.2,0.1,0.3c0.1,0.1,0.2,0.1,0.4,0.1c0.1,0,0.2,0,0.3-0.1
		c0.1,0,0.1-0.1,0.2-0.2l0.4,0.2c-0.1,0.1-0.2,0.2-0.4,0.3C96.8,82.1,96.7,82.1,96.5,82.1"/>
	<path id="XMLID_157_" class="st2" d="M98.7,80.3c0.2,0,0.4,0.1,0.5,0.2c0.1,0.1,0.2,0.3,0.2,0.5V82h-0.5v-1c0-0.1,0-0.2-0.1-0.3
		c-0.1-0.1-0.2-0.1-0.3-0.1c-0.1,0-0.2,0-0.3,0.1c-0.1,0.1-0.1,0.2-0.1,0.3V82h-0.5v-2.4h0.5v0.9C98.2,80.4,98.4,80.3,98.7,80.3"/>
	<polygon id="XMLID_156_" class="st2" points="101.9,80.3 102.4,80.3 101.8,82 101.4,82 101,81 100.6,82 100.2,82 99.6,80.3 
		100.1,80.3 100.4,81.4 100.8,80.3 101.3,80.3 101.6,81.4 	"/>
	<path id="XMLID_153_" class="st2" d="M103,81.4c0.1,0.2,0.2,0.3,0.5,0.3c0.2,0,0.3-0.1,0.4-0.2l0.4,0.2c-0.2,0.2-0.5,0.4-0.8,0.4
		c-0.3,0-0.6-0.1-0.8-0.3s-0.3-0.4-0.3-0.7c0-0.3,0.1-0.5,0.3-0.6c0.2-0.2,0.4-0.3,0.7-0.3c0.3,0,0.5,0.1,0.7,0.3
		c0.2,0.2,0.3,0.4,0.3,0.6c0,0.1,0,0.1,0,0.2H103z M103,81h1c0-0.1-0.1-0.2-0.2-0.3c-0.1-0.1-0.2-0.1-0.3-0.1c-0.1,0-0.2,0-0.3,0.1
		C103.1,80.8,103.1,80.9,103,81"/>
	<path id="XMLID_150_" class="st2" d="M105.1,80.1c-0.1,0-0.2,0-0.2-0.1c-0.1-0.1-0.1-0.1-0.1-0.2c0-0.1,0-0.1,0.1-0.2
		c0.1-0.1,0.1-0.1,0.2-0.1c0.1,0,0.2,0,0.2,0.1c0.1,0.1,0.1,0.1,0.1,0.2c0,0.1,0,0.1-0.1,0.2C105.2,80.1,105.2,80.1,105.1,80.1
		 M104.8,80.3h0.5V82h-0.5V80.3z"/>
	<polygon id="XMLID_149_" class="st2" points="106.4,81.6 107.2,81.6 107.2,82 105.7,82 105.7,81.8 106.5,80.7 105.8,80.7 
		105.8,80.3 107.2,80.3 107.2,80.6 	"/>
	<path id="XMLID_148_" class="st2" d="M111.2,80.8v0.2c0,0.3-0.1,0.6-0.4,0.8c-0.2,0.2-0.6,0.3-0.9,0.3c-0.4,0-0.8-0.1-1-0.4
		c-0.3-0.2-0.4-0.5-0.4-0.9c0-0.4,0.1-0.6,0.4-0.9c0.3-0.2,0.6-0.4,1-0.4c0.2,0,0.5,0.1,0.7,0.2c0.2,0.1,0.4,0.2,0.5,0.4l-0.4,0.2
		c-0.1-0.1-0.2-0.2-0.3-0.2c-0.1-0.1-0.3-0.1-0.4-0.1c-0.3,0-0.5,0.1-0.6,0.2c-0.2,0.2-0.2,0.3-0.2,0.6c0,0.2,0.1,0.4,0.2,0.6
		c0.2,0.1,0.4,0.2,0.7,0.2c0.2,0,0.4,0,0.5-0.1c0.1-0.1,0.2-0.2,0.3-0.3h-0.8v-0.4H111.2z"/>
	<path id="XMLID_147_" class="st2" d="M113.6,80.3c0.2,0,0.4,0.1,0.5,0.2c0.1,0.1,0.2,0.3,0.2,0.5V82h-0.5v-1c0-0.1,0-0.2-0.1-0.2
		c-0.1-0.1-0.1-0.1-0.2-0.1c-0.1,0-0.2,0-0.3,0.1c-0.1,0.1-0.1,0.2-0.1,0.3v1h-0.5v-1c0-0.1,0-0.2-0.1-0.2c-0.1-0.1-0.1-0.1-0.2-0.1
		c-0.1,0-0.2,0-0.3,0.1c-0.1,0.1-0.1,0.2-0.1,0.3v1h-0.5v-1.7h0.5v0.2c0.1-0.2,0.3-0.2,0.5-0.2c0.2,0,0.4,0.1,0.5,0.2
		C113.2,80.4,113.4,80.3,113.6,80.3"/>
	<path id="XMLID_144_" class="st2" d="M115.9,80.3c0.3,0,0.5,0.1,0.7,0.3c0.2,0.2,0.3,0.4,0.3,0.6c0,0.3-0.1,0.5-0.3,0.6
		c-0.2,0.2-0.4,0.3-0.7,0.3c-0.3,0-0.5-0.1-0.6-0.3V82h-0.5v-2.4h0.5v0.9C115.4,80.4,115.6,80.3,115.9,80.3 M115.4,81.5
		c0.1,0.1,0.2,0.1,0.4,0.1c0.2,0,0.3,0,0.4-0.1c0.1-0.1,0.2-0.2,0.2-0.3c0-0.1-0.1-0.3-0.2-0.3c-0.1-0.1-0.2-0.1-0.4-0.1
		c-0.2,0-0.3,0-0.4,0.1c-0.1,0.1-0.1,0.2-0.1,0.3C115.3,81.3,115.3,81.4,115.4,81.5"/>
	<polygon id="XMLID_143_" class="st2" points="118.7,79.6 119.2,79.6 119.2,82 118.7,82 118.7,81.1 117.7,81.1 117.7,82 117.2,82 
		117.2,79.6 117.7,79.6 117.7,80.6 118.7,80.6 	"/>
</g>
</svg>
