<?xml version="1.0" encoding="utf-8"?>
<!-- Generator: Adobe Illustrator 19.0.0, SVG Export Plug-In . SVG Version: 6.00 Build 0)  -->
<svg version="1.1" id="katman_1" xmlns="http://www.w3.org/2000/svg" xmlns:xlink="http://www.w3.org/1999/xlink" x="0px" y="0px"
	 viewBox="0 0 141.7 141.7" style="enable-background:new 0 0 141.7 141.7;" xml:space="preserve">
<style type="text/css">
	.st0{fill:#29363C;}
	.st1{fill:#167DBD;}
</style>
<g id="XMLID_3_">
	<path id="XMLID_486_" class="st0" d="M69.3,38.7c0.1,0,0.1,0,0.2,0c0.2,0,0.3,0,0.5,0c0.2,0,0.4,0,0.5-0.1c0,0,0,0,0,0
		c0.3,0.1,0.5,0,0.8,0c0.1,0,0.2,0,0.3,0c0.2,0,0.4,0,0.6,0c0.2,0.1,0.3,0,0.5,0c0.1,0,0.1,0,0.2,0c0.1,0,0.2,0,0.3,0
		c0.3,0,0.6,0.1,1,0.1c0.1,0,0.2,0,0.2,0c0.4,0.1,0.9,0.2,1.4,0.3c1,0.2,2,0.5,3,0.9c0.3,0.1,0.6,0.2,0.9,0.3c0,0,0,0.1,0,0.1
		c-0.9-0.3-1.8-0.6-2.8-0.8c-0.2,0-0.4-0.1-0.7-0.1c-0.1,0-0.2,0-0.2,0c-0.3,0-0.6-0.1-0.8-0.1c-0.1,0-0.2,0-0.3,0
		c-0.1,0-0.1,0-0.2,0c-0.1,0-0.2,0-0.3,0c-0.2,0-0.4,0-0.6,0c-0.4,0-0.8,0-1.2,0c-0.2,0-0.4,0-0.6,0c-0.1,0-0.2,0-0.3,0
		c-0.1,0-0.1,0-0.2,0c-0.1,0-0.2,0-0.3,0c-0.7,0-1.4,0.2-2.1,0.3c-0.9,0.2-1.7,0.4-2.6,0.7C65.1,40.9,64,41.4,63,42
		c-0.8,0.5-1.6,1-2.4,1.6c-0.9,0.7-1.7,1.5-2.4,2.3c-0.7,0.8-1.3,1.6-1.9,2.4C55,50.4,54,52.6,53.5,55c-0.1,0.5-0.2,1-0.3,1.5
		c0,0.1,0,0.2,0,0.3c-0.1,0.2,0,0.4-0.1,0.5c0,0.1,0,0.2,0,0.3c0,0.1,0,0.1,0,0.2c0,0.1,0,0.3,0,0.4c0,0.1,0,0.3,0,0.4
		c0,0.5,0,0.9,0,1.4c0,0.1,0,0.3,0,0.4c0,0.2,0,0.3,0,0.5c0,0.7,0.1,1.4,0.3,2.1c0,0.2,0,0.3-0.2,0.3c-0.7,0.2-1.3,0.3-2,0.5
		c-0.4,0.1-0.7,0.2-1.1,0.3c-0.4,0.1-0.4,0.1-0.4-0.3c0-0.1,0-0.2,0-0.2c0-0.3-0.1-0.5-0.1-0.8c0-0.1,0-0.2,0-0.3
		c0-0.3,0-0.5-0.1-0.8c0-0.1,0-0.2,0-0.3c0-0.2,0-0.3,0-0.5c0-0.4,0-0.8,0-1.3c0-0.2,0-0.3,0-0.5c0-0.1,0-0.2,0-0.3
		c0-0.1,0-0.2,0-0.4c0-0.1,0-0.2,0-0.2c0-0.1,0-0.1,0-0.2c0-0.1,0-0.2,0-0.3c0.1-0.9,0.2-1.8,0.5-2.6c0.3-1,0.6-2,1-2.9
		c0.3-0.8,0.7-1.6,1.1-2.4c0.4-0.8,0.9-1.5,1.4-2.2c0.4-0.6,0.9-1.2,1.3-1.7c0.4-0.4,0.7-0.8,1.2-1.2c0.8-0.7,1.6-1.4,2.4-2
		c0.9-0.7,1.8-1.2,2.8-1.7c1.8-0.9,3.7-1.6,5.7-1.9c0.2,0,0.5-0.1,0.7-0.1c0.1,0,0.2,0,0.2,0c0.3,0,0.7-0.1,1-0.1
		C69.1,38.7,69.2,38.7,69.3,38.7z"/>
	<path id="XMLID_484_" class="st0" d="M118.1,102c0.2,0,0.4,0,0.6,0c0.1-0.1,0.2,0,0.3,0l0,0c0.1-0.1,0.3-0.1,0.5-0.1
		c0.3-0.1,0.6-0.2,0.8-0.3c0-0.1,0.1-0.1,0.2-0.1c0.4-0.3,0.7-0.6,0.9-1c0-0.1,0.1-0.1,0.1-0.2c0-0.1,0-0.2,0.1-0.3
		c0.1-0.3,0.1-0.7,0.1-1c0-0.9-0.2-1.7-0.8-2.4c-0.1-0.1-0.2-0.2-0.2-0.3c-0.2-0.2-0.4-0.4-0.5-0.5c-0.1,0-0.2-0.1-0.3-0.2
		c-0.2-0.2-0.4-0.3-0.7-0.5c-0.1,0-0.2,0-0.2-0.1c0-0.1-0.1-0.1-0.1,0c-0.1,0-0.3-0.1-0.3-0.2c-0.2-0.2-0.5-0.3-0.7-0.4
		c-0.2-0.1-0.4-0.3-0.7-0.4c-0.3-0.1-0.4-0.4-0.7-0.5c-0.1,0-0.2-0.1-0.2-0.2c-0.6-0.4-1.3-0.9-1.8-1.5c-0.1-0.1-0.2-0.1-0.2-0.2
		c-0.2-0.3-0.3-0.5-0.5-0.8c-0.2-0.3-0.3-0.6-0.4-0.9c0-0.1-0.1-0.1-0.1-0.2c-0.1-0.3-0.1-0.6-0.1-0.9c0-0.2,0-0.5,0-0.7
		c0-0.6,0.1-1.2,0.4-1.7c0.4-0.8,1.1-1.5,1.9-1.9c0.6-0.3,1.3-0.4,1.9-0.5c0.4,0,0.7,0,1.1,0c0.9,0.1,1.8,0.4,2.6,0.9
		c0.2,0.2,0.5,0.3,0.8,0.3c0.2,0,0.3,0,0.4-0.2c0.1-0.3,0.2-0.5,0.2-0.8c0.2-0.1,0.4,0,0.6,0c0.1,0,0.1,0.1,0,0.2c0,0.1,0,0.2,0,0.3
		c0,0.1,0,0.3,0,0.4c0,0.3,0,0.5,0,0.8c-0.1,0.3,0,0.5,0,0.8c0,0.5,0,1.1,0,1.6c0,0.4,0,0.7,0,1.1c0,0.1,0,0.2,0,0.2c0,0,0,0,0,0
		c-0.2,0-0.4,0.1-0.5,0c-0.1-0.1-0.1-0.3-0.1-0.5c-0.2-1.1-0.5-2.1-1.1-2.9c-1.1-1.4-2.8-1.8-4.2-1.3c-1.4,0.5-2.1,1.9-1.9,3.3
		c0.2,1,0.7,1.7,1.5,2.3c0.8,0.6,1.7,1.1,2.5,1.7c1.1,0.7,2.2,1.3,3.1,2.2c0.9,0.8,1.5,1.7,1.7,2.9c0,0.1,0,0.2,0.1,0.3
		c0,0.1,0,0.1,0,0.2c0,0.2,0,0.5,0,0.7c0,0.1,0,0.2,0,0.2c-0.1,0.4-0.1,0.8-0.3,1.3c-0.4,1-1.1,1.8-2.1,2.3
		c-0.9,0.5-1.9,0.7-2.9,0.7c-0.2,0-0.4,0-0.6,0c-0.3,0-0.6,0-0.8-0.1c-0.1,0-0.2,0-0.2,0c-0.1,0-0.2,0-0.3-0.1
		c-0.1,0.1-0.2,0-0.3-0.1c-0.4-0.2-0.7-0.3-1.1-0.5c-0.2,0-0.3-0.1-0.4-0.2c0-0.1-0.1,0-0.1,0c-0.2-0.1-0.4-0.2-0.6-0.3
		c-0.3-0.1-0.4-0.1-0.5,0.2c-0.1,0.3-0.2,0.6-0.2,0.9c-0.2,0.1-0.4,0-0.6,0c0-0.1,0-0.3,0-0.4c0-0.2,0-0.3,0-0.5c0,0,0-0.1,0-0.1
		c0-0.2,0-0.4,0-0.6c0-0.4,0-0.8,0-1.2c0-0.4,0-0.8,0-1.2c0-0.7,0-1.4,0-2.1c0.2,0,0.4-0.1,0.6,0c0,0.8,0.2,1.6,0.4,2.4
		c0.1,0.2,0.1,0.4,0.2,0.6c0.1,0.1,0.1,0.2,0.1,0.3c0.1,0.3,0.3,0.6,0.5,0.9c0.1,0.1,0.2,0.2,0.2,0.3c0.3,0.4,0.7,0.7,1.2,0.9
		c0.1,0,0.1,0,0.1,0.1c0.4,0.2,0.8,0.3,1.2,0.3C117.9,102,118,101.9,118.1,102z"/>
	<path id="XMLID_476_" class="st1" d="M41.1,61.4c0-0.1,0-0.1,0-0.2c0-0.1,0-0.2,0-0.3c0-0.3,0-0.6,0-1c0-0.1,0-0.2,0-0.3
		c0-0.1,0-0.1,0-0.2c0-0.1,0-0.2,0-0.3c0.1-0.8,0.3-1.6,0.6-2.4c0.4-1.1,1-2.1,1.7-3c1.1-1.4,2.4-2.5,4-3.3c0.7-0.4,1.5-0.7,2.3-0.9
		c0.1,0,0.1,0,0.1,0c-0.5,0.2-1.1,0.4-1.6,0.7c-0.7,0.4-1.3,0.8-1.9,1.3c-1.1,0.9-2,2-2.6,3.3c-0.4,0.8-0.7,1.7-0.7,2.6
		c0,0.1,0,0.2,0,0.2c0,0.1,0,0.2,0,0.3c0,0.2,0,0.4,0,0.6c0,0.9,0.2,1.8,0.6,2.6c0.9,2.2,2.5,3.6,4.7,4.4c0.8,0.3,1.6,0.5,2.5,0.5
		c0.1,0,0.2,0,0.3,0c0.1,0,0.2,0,0.3,0c0.1,0,0.3,0,0.4,0c0.3,0,0.6,0,0.9,0c0.1,0,0.3,0,0.4,0c0.1,0,0.2,0,0.3,0c0.1,0,0.2,0,0.3,0
		c0.1,0,0.1,0,0.2,0c0.1,0,0.2,0,0.3,0c0.7,0,1.3-0.2,2-0.4c1.2-0.3,2.4-0.6,3.5-0.9c0.7-0.2,1.5-0.4,2.2-0.6c1.3-0.3,2.6-0.7,3.9-1
		c1-0.3,1.9-0.5,2.9-0.8c1.5-0.4,3.1-0.8,4.6-1.3c1.5-0.4,3-0.8,4.5-1.2c1.6-0.4,3.2-0.9,4.8-1.3c1.1-0.3,2.2-0.6,3.3-0.9
		c0.2,0,0.2,0,0.2,0.1c0,0.4,0.1,0.7,0.2,1.1c0,0.1,0,0.2,0,0.3c0,0.2,0,0.5,0.1,0.7c0,0.1,0,0.2,0,0.3c0,0.6,0,1.3,0,1.9
		c0,0.1,0,0.2,0,0.3c0,0.2,0,0.5-0.1,0.7c0,0.1,0,0.2,0,0.3c-0.1,0.6-0.2,1.2-0.3,1.8c-0.3,1.2-0.6,2.3-1.1,3.4
		c-0.5,1.3-1.2,2.4-2,3.5c-0.9,1.3-2,2.4-3.3,3.4c-0.8,0.6-1.6,1.2-2.5,1.7c-0.9,0.5-1.8,0.9-2.7,1.2c-0.9,0.3-1.7,0.6-2.6,0.7
		c-0.6,0.1-1.2,0.2-1.8,0.3c-0.1,0-0.2,0-0.3,0c-0.1,0-0.1,0-0.2,0c-0.2,0-0.3,0-0.5,0c-0.2,0-0.4,0-0.6,0c-0.2,0-0.4,0-0.6,0
		c-0.2,0-0.4,0-0.6,0c-0.2-0.1-0.3,0-0.5,0c-0.1,0-0.2,0-0.2,0c-0.1,0-0.2,0-0.2,0c-0.9-0.1-1.8-0.2-2.6-0.5
		c-1.1-0.3-2.1-0.6-3.2-1.1c-0.8-0.4-1.6-0.8-2.3-1.3c-0.6-0.4-1.3-0.9-1.8-1.4c-1.1-0.9-2.1-2-2.9-3.1c0-0.1-0.1-0.1-0.1-0.2
		c0,0,0,0,0,0c1.9,1.8,4,3.1,6.5,3.8c0.9,0.3,1.9,0.5,2.9,0.6c0.2,0,0.4,0,0.7,0c0.1,0,0.2,0,0.3,0c0.2,0,0.3,0,0.5,0
		c0.3,0,0.6,0,0.9,0c0.2,0,0.3,0,0.5,0c0.1,0,0.2,0,0.3,0c0.8,0,1.6-0.2,2.4-0.4c1.2-0.3,2.3-0.7,3.4-1.2c1-0.5,1.9-1,2.7-1.7
		c0.7-0.6,1.4-1.2,2-1.8c0.4-0.5,0.8-1,1.2-1.5c0.6-0.8,1.1-1.7,1.5-2.6c0.2-0.5,0.4-0.9,0.6-1.4c0-0.1-0.1-0.1-0.2-0.1
		c-0.7,0.2-1.4,0.3-2.2,0.5c-1,0.2-2,0.4-3,0.6c-0.8,0.2-1.6,0.3-2.4,0.5c-1,0.2-2.1,0.4-3.1,0.7c-1.1,0.3-2.2,0.5-3.3,0.7
		c-0.8,0.2-1.5,0.3-2.3,0.5c-0.6,0.1-1.2,0.2-1.9,0.4c-0.8,0.2-1.5,0.3-2.3,0.5C57.9,70.6,57,70.9,56,71c-0.1,0-0.2,0-0.2,0.1
		c-0.1,0-0.2,0-0.2,0c-0.4,0-0.7,0.1-1.1,0.1c-0.1,0-0.2,0-0.3,0c-0.1,0-0.2,0-0.3,0c-0.7,0-1.3,0-2,0c-0.1,0-0.2,0-0.3,0
		c-0.1,0-0.2,0-0.3,0c-1,0-2-0.3-2.9-0.5c-1.3-0.4-2.5-1-3.6-1.9c-0.9-0.8-1.7-1.7-2.3-2.7c-0.4-0.7-0.8-1.5-1-2.3
		c-0.2-0.5-0.3-1.1-0.4-1.7c0-0.1,0-0.3-0.1-0.4C41.1,61.6,41.1,61.5,41.1,61.4z"/>
	<path id="XMLID_475_" class="st0" d="M74.3,40.9c0.1,0,0.1,0,0.2,0c0.1,0,0.2,0,0.3,0c0.9,0.1,1.8,0.3,2.8,0.5
		c1.8,0.5,3.5,1.2,5,2.2c1.3,0.8,2.6,1.8,3.6,2.9c0.6,0.6,1.1,1.2,1.6,1.9c0,0,0,0-0.1,0c-0.4-0.3-0.7-0.7-1.1-1
		c-0.6-0.4-1.1-0.8-1.7-1.2c-0.7-0.4-1.5-0.8-2.3-1.2c-0.8-0.3-1.6-0.6-2.5-0.8c-0.5-0.1-0.9-0.2-1.4-0.3c-0.1,0-0.2,0-0.2,0
		c-0.2,0-0.5-0.1-0.7-0.1c-0.1,0-0.2,0-0.4,0c-0.2,0-0.4,0-0.5,0c-0.2,0-0.3,0-0.5,0c-0.2,0-0.4,0-0.6,0c-0.1,0-0.2,0-0.3,0
		c-0.2,0-0.5,0-0.7,0.1c-0.1,0-0.2,0-0.3,0c-0.8,0.1-1.5,0.2-2.2,0.4c-0.7,0.2-1.5,0.5-2.2,0.8c-1.3,0.6-2.5,1.3-3.6,2.2
		c-0.5,0.4-1,0.9-1.5,1.3c-1.4,1.5-2.6,3.3-3.3,5.2c-0.1,0.1-0.1,0.3-0.2,0.5c0,0.2,0.1,0.1,0.2,0.1c1.1-0.2,2.3-0.5,3.4-0.7
		c1.3-0.3,2.5-0.5,3.8-0.8c1.8-0.4,3.5-0.8,5.3-1.1c2.2-0.5,4.5-0.9,6.7-1.4c1.3-0.3,2.6-0.6,3.9-0.8c0.6-0.1,1.1-0.1,1.7-0.2
		c0.1,0,0.3,0,0.4,0c0.1,0,0.2,0,0.4,0c0.3,0,0.5,0,0.8,0c0.1,0,0.2,0,0.3,0c0.2,0.1,0.5,0,0.7,0c0.1,0,0.2,0,0.3,0
		c0.1,0,0.3,0,0.4,0c0.9,0.1,1.8,0.3,2.7,0.5c1.3,0.4,2.5,1,3.6,1.8c1,0.8,1.8,1.8,2.4,2.9c0.6,1.1,1.1,2.4,1.3,3.7
		c0.1,0.4,0.1,0.8,0.2,1.2c0,0.5,0,1,0,1.6c-0.2,1.5-0.6,3-1.3,4.4c-0.9,1.7-2.3,3.1-3.9,4.2c-1,0.7-2.1,1.2-3.3,1.5
		c-0.1,0-0.1,0-0.2,0c0.5-0.2,0.9-0.4,1.3-0.6c0.7-0.4,1.3-0.8,1.9-1.3c0.8-0.6,1.5-1.4,2.1-2.2c0.5-0.8,1-1.7,1.2-2.6
		c0.1-0.3,0.1-0.6,0.2-0.9c0-0.1,0-0.2,0-0.2c0.1-0.6,0.1-1.3,0-1.9c0-0.1,0-0.2,0-0.2c-0.1-0.5-0.2-1.1-0.4-1.6
		c-0.3-0.7-0.7-1.4-1.2-2.1c-0.3-0.4-0.6-0.7-1-1.1c-0.6-0.5-1.2-0.9-1.9-1.2c-0.5-0.2-1.1-0.4-1.7-0.6c-0.5-0.1-1-0.2-1.5-0.3
		c-0.1,0-0.2,0-0.2,0c-0.1,0-0.2,0-0.4,0c-0.2-0.1-0.4,0-0.5,0c-0.2,0-0.4,0-0.6,0c-0.2,0-0.3,0-0.5,0c-0.1,0-0.3,0-0.4,0
		c-0.1,0-0.2,0-0.2,0c-0.1,0-0.1,0-0.2,0c-0.1,0-0.2,0-0.3,0c-0.5,0-0.9,0.1-1.4,0.2c-1.4,0.3-2.8,0.7-4.2,1.1
		c-1.1,0.3-2.2,0.6-3.4,0.9c-1.3,0.3-2.5,0.7-3.8,1c-1.2,0.3-2.4,0.6-3.6,1c-0.6,0.2-1.1,0.3-1.7,0.4c-1.5,0.4-3.1,0.8-4.6,1.2
		c-1.6,0.4-3.1,0.8-4.7,1.3c-1.4,0.4-2.7,0.7-4.1,1.1c-0.1,0-0.2,0-0.2,0c-0.4,0.1-0.4,0.1-0.4-0.3c0-0.2-0.1-0.3-0.1-0.5
		c0-0.1,0-0.2,0-0.2c-0.1-0.2,0-0.4-0.1-0.6c0-0.1,0-0.2,0-0.2c0-0.1,0-0.1,0-0.2c0-0.1,0-0.3,0-0.4c0-0.2,0-0.3,0-0.5
		c0-0.3,0-0.6,0-0.9c0-0.2,0-0.3,0-0.5c0.1-0.2,0-0.3,0-0.5c0-0.1,0-0.1,0-0.2c0-0.1,0-0.2,0-0.3c0-0.2,0-0.4,0.1-0.5
		c0-0.1,0-0.2,0-0.3c0.2-1,0.4-1.9,0.7-2.9c0.4-1.2,0.9-2.3,1.4-3.3c0.5-0.9,1-1.7,1.6-2.4c0.6-0.8,1.3-1.6,2.1-2.3
		c0.6-0.6,1.2-1,1.9-1.5c0.9-0.6,1.8-1.2,2.8-1.6c1.4-0.6,2.8-1.1,4.3-1.4c0.5-0.1,1-0.2,1.6-0.2c0.1,0,0.2,0,0.3,0
		c0.1,0,0.1,0,0.2,0c0.1,0,0.2,0,0.3,0c0.7,0,1.3,0,2,0C74.1,41,74.2,40.9,74.3,40.9z"/>
	<path id="XMLID_474_" class="st1" d="M66.2,81.3c0.1,0,0.1,0,0.2,0c0.1,0,0.3,0,0.4,0c0.1,0,0.3,0,0.4,0c0.5,0,1,0,1.5,0
		c0.1,0,0.3,0,0.4,0c0.1,0,0.3,0,0.4,0c0.1,0,0.1,0,0.2,0c0.1,0,0.2,0,0.3,0c0.9-0.1,1.7-0.2,2.6-0.4c1.3-0.3,2.5-0.7,3.7-1.3
		c1.2-0.6,2.4-1.3,3.5-2.1c1-0.8,2-1.6,2.8-2.6c0.7-0.8,1.4-1.6,1.9-2.5c0.5-0.7,0.9-1.4,1.2-2.2c0.4-0.8,0.7-1.5,1-2.3
		c0.3-0.9,0.5-1.8,0.7-2.7c0.1-0.5,0.1-0.9,0.2-1.4c0-0.1,0-0.2,0-0.2c0-0.1,0-0.1,0-0.2c0-0.1,0-0.2,0-0.2c0-0.1,0-0.2,0-0.4
		c0-0.1,0-0.2,0-0.3c0-0.1,0-0.3,0-0.4c0-0.4,0-0.9,0-1.3c0-0.1,0-0.3,0-0.4c0-0.1,0-0.2,0-0.3c0-0.1,0-0.2,0-0.4c0-0.1,0-0.2,0-0.2
		c0-0.1,0-0.1,0-0.2c0-0.1,0-0.2,0-0.2c-0.1-0.5-0.1-0.9-0.2-1.4c0-0.1,0-0.2,0.1-0.2c1.1-0.3,2.2-0.6,3.2-0.9c0.1,0,0.2,0,0.2,0.1
		c0.1,0.6,0.2,1.1,0.2,1.7c0,0.1,0,0.2,0,0.3c0,0.1,0,0.2,0,0.3c0,0.1,0,0.3,0,0.4c0,0.7,0,1.4,0,2.1c0,0.1,0,0.3,0,0.4
		c0,0.1,0,0.1,0,0.2c-0.1,0.1,0,0.3,0,0.4c-0.1,1-0.3,2-0.5,3c-0.3,1.4-0.8,2.7-1.4,4c-0.7,1.5-1.5,2.9-2.5,4.2
		c-0.9,1.1-1.9,2.2-3,3.1C83,77.6,82.1,78.3,81,79c-0.9,0.6-1.9,1-2.9,1.5c-1.2,0.5-2.4,0.9-3.6,1.1c-0.6,0.1-1.1,0.2-1.7,0.3
		c-0.1,0-0.2,0-0.2,0c-0.2,0-0.4,0-0.6,0.1c-0.1,0-0.2,0-0.2,0c-0.1,0-0.1,0-0.2,0c-0.2,0-0.3,0-0.5,0c-0.1,0-0.3,0-0.4,0
		c-0.5,0-1,0-1.5,0c-0.1,0-0.3,0-0.4,0c-0.2-0.1-0.3,0-0.5,0c-0.1,0-0.1,0-0.2,0c-0.1,0-0.2,0-0.2,0c-0.2,0-0.4,0-0.6-0.1
		c-0.1,0-0.2,0-0.2,0c-0.7-0.1-1.5-0.2-2.2-0.4c-0.9-0.2-1.9-0.5-2.8-0.9c-0.2-0.1-0.4-0.1-0.6-0.3c0,0,0-0.1,0,0
		c0.9,0.3,1.8,0.6,2.7,0.7c0.6,0.1,1.2,0.2,1.8,0.3C66,81.3,66.1,81.2,66.2,81.3z"/>
	<path id="XMLID_472_" class="st0" d="M22.7,102.5c-0.2,0-0.4,0-0.6,0c-0.3,0-0.6,0-0.9-0.1c-0.1,0-0.2,0-0.2,0
		c-0.8-0.1-1.6-0.5-2.3-1c-0.2-0.1-0.4-0.2-0.7-0.2c-0.1,0-0.2,0.1-0.3,0.2c-0.2,0.3-0.2,0.6-0.2,0.9c-0.2,0.1-0.4,0.1-0.6,0
		c0-0.1,0-0.1,0-0.2c0.1-0.2,0-0.5,0-0.7c0-0.2,0-0.5,0-0.7c0-0.3,0-0.7,0-1c0-0.1,0-0.2,0-0.3c0-1.1,0-2.2,0-3.2
		c0.2-0.1,0.4-0.1,0.6,0c0,0,0,0.1,0,0.1c0,0.1,0,0.2,0,0.4c0.1,1.5,0.5,2.9,1.5,4.1c0.6,0.7,1.5,1.1,2.4,1.2c0.1,0,0.2,0,0.2,0
		c0.9,0.1,1.7-0.1,2.5-0.6c0.6-0.4,0.9-1,1.1-1.6c0.1-0.4,0.2-0.9,0.1-1.3c-0.1-1-0.5-1.8-1.2-2.5c-0.5-0.5-1-0.9-1.6-1.2
		c-0.9-0.6-1.9-1.1-2.7-1.7c-0.5-0.4-1.1-0.8-1.6-1.3c-0.6-0.7-1.1-1.5-1.3-2.4c0-0.1,0-0.1,0-0.2c0-0.1,0-0.2,0-0.3
		c0-0.1,0-0.2,0-0.3c0-0.2,0-0.5,0-0.7c0-0.1,0-0.1,0-0.2c0-0.1,0-0.2,0-0.3c0.1-0.7,0.4-1.4,0.9-2c0.5-0.6,1.2-1,1.9-1.3
		c0.5-0.2,1-0.2,1.4-0.3c0.4,0,0.7,0,1.1,0c0.9,0.1,1.8,0.4,2.6,0.9c0.1,0.1,0.3,0.2,0.5,0.3c0.5,0.2,0.7,0.1,0.8-0.4
		c0-0.1,0.1-0.3,0.1-0.5c0-0.1,0.1-0.1,0.2-0.1c0.1,0,0.2,0,0.3,0c0.1,0,0.1,0.1,0.1,0.2c0,0.1,0,0.2,0,0.3c-0.1,0.2,0,0.4,0,0.6
		c0,0.2,0,0.4,0,0.5c-0.1,0.3,0,0.5,0,0.8c0,0.9,0,1.7,0,2.6c0,0.2-0.1,0.3-0.3,0.2c-0.4,0-0.3,0-0.4-0.4c-0.2-1.1-0.4-2.1-1.1-3
		c-0.5-0.7-1.2-1.2-2-1.4c-0.2-0.1-0.4-0.1-0.6-0.1c-0.1,0-0.2,0-0.3,0c-0.1,0-0.2,0-0.3,0c-0.1,0-0.2,0-0.3,0
		c-1.2,0.1-2.3,0.9-2.6,2.2c0,0.1,0,0.1,0,0.2c0,0.1,0,0.2,0,0.3c0,0.2,0,0.4,0,0.6c0,0.1,0,0.2,0,0.3c0,0.5,0.3,1,0.6,1.4
		c0.6,0.8,1.5,1.3,2.3,1.8c1.3,0.8,2.6,1.6,3.8,2.5c1,0.8,1.7,1.7,2,3c0,0.1,0.1,0.2,0.1,0.4c0,0.1,0,0.2,0,0.3c0,0.3,0,0.5,0,0.8
		c0,0.1,0,0.2,0,0.3c-0.1,0.5-0.2,1-0.4,1.4c-0.4,0.8-1,1.5-1.8,1.9C24.6,102.2,23.7,102.4,22.7,102.5z"/>
	<path id="XMLID_471_" class="st0" d="M90.9,99.6c-0.3-0.4-0.6-0.9-0.9-1.3c-0.1-0.1-0.2-0.2-0.3-0.4c-0.1-0.1-0.1-0.2-0.2-0.3
		c-0.1,0-0.2-0.1-0.2-0.2c-0.1-0.3-0.4-0.5-0.6-0.8c-0.1-0.1-0.2-0.2-0.2-0.3c-0.1-0.1-0.1-0.2-0.2-0.3c-0.1,0-0.2-0.1-0.2-0.2
		c-0.3-0.5-0.6-0.9-0.9-1.3c0-0.1-0.1-0.1-0.1-0.2c-0.1,0-0.2-0.1-0.2-0.2c-0.2-0.4-0.5-0.8-0.8-1.1c-0.1-0.1-0.2-0.2-0.2-0.3
		c-0.1,0-0.2-0.1-0.2-0.2c-0.3-0.4-0.5-0.8-0.8-1.1c-0.2-0.3-0.4-0.6-0.6-0.8c-0.1,0-0.2-0.1-0.2-0.2c-0.1-0.3-0.4-0.5-0.6-0.8
		c-0.1,0-0.2-0.1-0.2-0.2c-0.1-0.2-0.2-0.3-0.3-0.4c-0.1-0.1-0.2-0.2-0.2-0.3c0,0,0-0.1-0.1-0.2c0,0.1,0,0.1,0,0.2
		c0,3.8,0,7.5,0,11.3c0,0,0,0.1,0,0.1c0,0.1,0,0.2,0,0.3c0,1,0.6,1.5,1.6,1.5c0.1,0,0.2,0,0.3,0c0.1,0,0.2,0,0.3,0
		c0.1,0.1,0.1,0.5,0.1,0.5c-0.1,0.1-0.2,0-0.4,0c-0.1,0-0.2,0-0.4,0c-0.2-0.1-0.5,0-0.7,0c-0.7,0-1.5,0-2.2,0c-0.2,0-0.4,0-0.6,0
		c-0.1,0-0.2,0-0.4,0c-0.1,0-0.2,0-0.3,0c0,0,0-0.1,0-0.1c0-0.3,0-0.3,0.3-0.4c0.1,0,0.2,0,0.3,0c0.8-0.1,1.3-0.5,1.4-1.3
		c0-0.1,0.1-0.2,0.1-0.3c0-0.1,0-0.2,0-0.3c0-0.1,0-0.3,0-0.4c0-3.4,0-6.9,0-10.3c0-0.1,0-0.1,0-0.2c0-0.1,0-0.2,0-0.3
		c-0.1-0.2,0-0.5-0.2-0.7c-0.2-0.3-0.4-0.5-0.7-0.5c-0.3-0.1-0.5-0.1-0.8-0.1c-0.1-0.1-0.3,0-0.4-0.1c0-0.1,0-0.2,0-0.2
		c0-0.2,0-0.3,0.3-0.3c0.1,0,0.3,0,0.4,0c0.2,0,0.4,0,0.5,0c0.4,0,0.9,0,1.3,0c0.3,0,0.7,0,1,0c0.2,0,0.4,0,0.5,0c0.1,0,0.3,0,0.4,0
		c0.1,0,0.2,0,0.3,0c0.1,0,0.2,0.1,0.2,0.2c0.3,0.6,0.8,1.1,1.2,1.6c1,1.3,1.9,2.7,2.9,4c1.3,1.8,2.5,3.5,3.8,5.3c0,0,0,0.1,0,0.1
		c0.1-0.1,0.1-0.1,0.1-0.2c0-2.7,0-5.5,0-8.2c0-0.1,0-0.1,0-0.2c0-0.1,0-0.3,0-0.4c0-0.1,0-0.1,0-0.2c0-0.1,0-0.2,0-0.2
		c-0.1-0.3-0.1-0.5-0.3-0.8c-0.3-0.3-0.7-0.4-1.1-0.5c-0.1,0-0.3-0.1-0.4-0.1c-0.1,0-0.2,0-0.3,0l0,0c0-0.2,0-0.3,0-0.5
		c0.1,0,0.2,0,0.3,0c0.1,0.1,0.3,0,0.4,0c0.2,0,0.4,0,0.6,0c0.4,0,0.7,0,1.1,0c0.5,0,1,0,1.4,0c0.2,0,0.4,0,0.6,0c0.1,0,0.2,0,0.4,0
		c0.1,0,0.2,0,0.3,0c0.1,0.1,0,0.3,0,0.5c0,0,0,0,0,0.1c-0.1,0-0.2,0-0.3,0c0,0,0,0-0.1,0c-0.1,0.1-0.2,0.1-0.3,0
		c-0.3,0-0.6,0.1-0.8,0.3c0,0.1-0.1,0.2-0.2,0.2c-0.3,0.3-0.3,0.7-0.4,1.1c0,0.2,0,0.4,0,0.6c0,0.1,0,0.2,0,0.3c0,4.1,0,8.3,0,12.4
		c0,0.3,0,0.3-0.3,0.3c-0.1,0-0.2,0-0.4,0c-0.2-0.2-0.3-0.5-0.5-0.7c-0.1,0-0.2-0.1-0.2-0.2c-0.3-0.4-0.6-0.8-0.9-1.3
		C91.1,99.9,91,99.8,90.9,99.6z"/>
	<path id="XMLID_470_" class="st0" d="M106.2,87.2c-0.9,0-1.9,0-2.8,0c-0.1,0-0.2,0-0.3,0c-0.2,0-0.3,0.1-0.5,0.1
		c-0.2,0.1-0.3,0.3-0.5,0.5c-0.2,0.2-0.2,0.4-0.2,0.6c0,0.1,0,0.2,0,0.2c0,0.2,0,0.4,0,0.7c0,1.5,0,2.9,0,4.4c0,0.1,0,0.2,0,0.3
		c0.2,0.1,0.3,0,0.5,0c0.6,0,1.3,0,1.9,0c0.5,0,0.9-0.3,1.2-0.7c0-0.1,0.1-0.2,0.2-0.2c0.1-0.2,0.2-0.4,0.2-0.6
		c-0.1-0.1,0-0.2,0-0.3c0.1-0.2,0.1-0.4,0.2-0.6c0-0.1,0-0.1,0.1-0.1c0.2,0,0.3,0,0.5,0c0.1,0.1,0,0.2,0,0.2c0,0.1,0,0.2,0,0.3
		c0,0.1,0,0.2,0,0.3c0,0.9,0,1.9,0,2.8c0,0.1,0,0.3,0,0.4c0,0.1,0,0.2,0,0.3c0,0.1,0,0.3,0,0.4c0,0.1,0,0.2,0,0.3c0,0.1,0,0.2,0,0.3
		c0,0.1,0,0.2,0,0.4c0,0.1-0.1,0.1-0.2,0.1c-0.1,0-0.3,0-0.4,0c0-0.2,0-0.3-0.1-0.5c-0.1-0.1-0.1-0.2,0-0.3c0-0.2-0.1-0.3-0.1-0.5
		c0-0.1-0.1-0.1,0-0.2c0-0.1-0.1-0.3-0.2-0.4c-0.2-0.1-0.2-0.2-0.3-0.4c-0.3-0.3-0.7-0.4-1.1-0.4c-0.7,0-1.4,0-2.1,0
		c-0.1,0-0.2,0-0.2,0.2c0,1.7,0,3.4,0,5.2c0,0,0,0.1,0,0.1c0,0.1,0,0.2,0,0.3l0,0l0,0c0.1,0.1,0,0.2,0,0.3c0,0.3,0.1,0.5,0.4,0.7
		c0.1,0,0.2,0,0.2,0.1c0.2,0.1,0.4,0.1,0.6,0.1c0.1,0,0.3,0,0.4,0c0.8,0,1.6,0,2.5,0c0.1,0,0.2,0,0.3,0c0.4,0,0.8-0.1,1.2-0.2
		c0.1,0,0.1-0.1,0.2-0.1c0.6-0.4,1.1-0.9,1.3-1.6c0.2-0.5,0.2-0.9,0.4-1.4c0-0.1,0-0.1,0-0.2c0-0.1,0-0.1,0.1-0.2l0,0l0,0
		c0-0.1,0-0.2,0-0.3c0-0.1-0.1-0.4,0.3-0.3c0.3,0,0.3,0,0.3,0.4c-0.1,0.2,0,0.4,0,0.6c0,0.6,0,1.1,0,1.7c0,0.2,0,0.5,0,0.7
		c0,0.1,0,0.2,0,0.3c0,0.1,0,0.2,0,0.3c0,0.1,0,0.2,0,0.4c0,0.1,0,0.2,0,0.2c0,0.1,0,0.1,0,0.2c0,0.1,0,0.2-0.2,0.2
		c-0.2,0-0.3,0-0.5,0c-0.3,0-0.5,0-0.8,0c-0.4,0-0.8,0-1.2,0c-0.1,0-0.2,0-0.3,0c-1.5,0-3.1,0-4.6,0c-0.4,0-0.9,0-1.3,0
		c-0.5,0-1.1,0-1.6,0c-0.1,0-0.2,0-0.3,0c-0.4,0-0.7,0-1.1,0c-0.3,0-0.6,0-0.9,0c0,0,0-0.1,0-0.1c0-0.4,0-0.4,0.4-0.4
		c0.1,0,0.2,0,0.3,0c0.6,0,1-0.2,1.2-0.8c0.1-0.2,0.1-0.3,0.1-0.5c0-0.1,0-0.2,0-0.3c0-0.1,0-0.3,0-0.4c0-3.5,0-7,0-10.6
		c0-0.1,0-0.1,0-0.2c0-0.1,0-0.2,0-0.3c-0.1-0.3-0.1-0.6-0.2-0.8c-0.2-0.2-0.4-0.3-0.6-0.4c-0.3-0.1-0.5-0.1-0.8-0.1
		c-0.1-0.1-0.3,0-0.4-0.1c0-0.5,0-0.5,0.5-0.5c0.1,0,0.2,0,0.3,0c0.4,0.1,0.7,0,1.1,0c0.6,0,1.1,0,1.7,0c0.1,0,0.1,0,0.2,0
		c2,0,3.9,0,5.9,0c0.1,0,0.1,0,0.2,0c0.4,0,0.8,0,1.2,0c0.2,0,0.5,0,0.7,0c0,0,0,0,0,0c0.4,0,0.4,0,0.4,0.4c0,0.1,0,0.2,0,0.2
		c0,0.1,0,0.1,0,0.2c0,0.1,0,0.3,0,0.4c0,0.1,0,0.2,0,0.3c0,0.1,0,0.3,0,0.4c0,0.5,0,0.9,0,1.4c0,0.1,0.1,0.1,0,0.2
		c0,0.1,0,0.2,0,0.3c0,0.1,0,0.1,0,0.2c0,0.1,0,0.2-0.2,0.2c-0.1,0-0.2,0-0.3,0c-0.1,0-0.1-0.1-0.1-0.1c0-0.5-0.1-1-0.3-1.5
		c-0.1-0.1-0.1-0.2-0.1-0.3c-0.3-1-1-1.6-2.1-1.7C106.4,87.2,106.3,87.2,106.2,87.2z"/>
	<path id="XMLID_149_" class="st0" d="M60.7,100.8c-0.1-0.1-0.1-0.1-0.2,0c-0.3,0.3-0.6,0.6-1,0.7c-0.1,0-0.3,0-0.4,0
		c-0.2,0-0.3-0.2-0.4-0.3c-0.2-0.3-0.3-0.6-0.4-0.9c-0.2-1-0.5-1.9-0.7-2.9c-0.3-1.2-1.1-2-2.2-2.3c-0.5-0.2-1.1-0.2-1.7-0.3
		c0.1,0,0.2-0.1,0.3-0.1c0.8-0.1,1.5-0.3,2.2-0.7c0.9-0.4,1.6-1,2.1-1.9c0.2-0.4,0.3-0.7,0.4-1.1c0-0.3,0-0.6,0-0.9
		c0-0.1,0-0.1-0.1-0.2c-0.1-0.7-0.4-1.2-0.9-1.7c-0.5-0.5-1.2-0.9-1.9-1.1c-0.6-0.2-1.1-0.3-1.7-0.4c-0.1,0-0.3,0-0.4,0
		c-0.1,0-0.2,0-0.3,0c-0.6,0-1.3,0-1.9,0c-0.3,0-0.6,0-1,0c-0.1,0-0.2,0-0.3,0c-0.8,0-1.6,0-2.4,0c-0.1,0-0.2,0-0.4,0
		c-0.2,0-0.5,0-0.7,0c-0.2,0-0.3,0-0.5,0c-0.4,0-0.4,0-0.4,0.4c0,0,0,0.1,0,0.1c0.1,0.1,0.3,0,0.4,0c0.2,0,0.4,0.1,0.7,0.1
		c0.4,0.1,0.7,0.2,0.9,0.7c0.1,0.2,0.1,0.4,0.1,0.6c0,0.1,0,0.2,0,0.3c0,0.1,0,0.1,0,0.2c0,3.5,0,7.1,0,10.6c0,0.1,0,0.1,0,0.2
		c0,0.1,0,0.2,0,0.3c0,0.1,0,0.2-0.1,0.3c0,0.2-0.1,0.5-0.3,0.7c-0.3,0.3-0.6,0.4-1,0.4c-0.1,0-0.2,0-0.3,0c-0.4,0-0.4,0-0.4,0.4
		c0,0,0,0.1,0,0.1c0.1,0,0.3,0,0.4,0c0.2,0,0.3,0,0.5,0c0.3-0.1,0.6,0,0.9,0c1,0,1.9,0,2.9,0c0.3,0,0.6,0,0.9,0c0.2,0,0.3,0,0.5,0
		c0.1,0,0.2,0,0.3,0c0.1,0,0.1,0,0.2,0c0.1-0.1,0-0.4-0.1-0.5c-0.1,0-0.2,0-0.3,0c-0.1,0-0.2,0-0.3,0c-0.9,0-1.3-0.5-1.3-1.2
		c0-0.1,0-0.2,0-0.2c0-0.1,0-0.2,0-0.3c0,0,0-0.1,0-0.1c0-1.5,0-3,0-4.5c0,0,0-0.1,0-0.1c0.5,0,1.1,0,1.6,0c0.2,0,0.4,0,0.5,0
		c0.1,0,0.2,0,0.2,0c0.7,0.1,1.3,0.4,1.6,1c0.3,0.5,0.5,1.1,0.6,1.7c0.2,1,0.5,2,0.7,3c0.2,0.9,0.9,1.6,1.9,1.8c0.2,0,0.4,0,0.5,0.1
		c0,0,0,0,0,0c0.1-0.1,0.3,0,0.4,0c0.9,0,1.6-0.4,2.2-1.1C61.1,101,61,101.1,60.7,100.8z M50.5,94.4c-0.2,0-0.1-0.1-0.1-0.2
		c0-0.9,0-1.9,0-3c0-0.8,0-1.7,0-2.6c0-0.3,0-0.5,0.1-0.8c0.1-0.4,0.3-0.6,0.7-0.7c1.2-0.2,2.3-0.1,3.4,0.5c0.7,0.4,1.1,1.1,1.3,1.9
		c0.2,0.9,0.2,1.9-0.1,2.8c-0.3,1.1-1.1,1.7-2.2,2C52.6,94.5,51.5,94.4,50.5,94.4z"/>
	<path id="XMLID_146_" class="st0" d="M77.8,93.3c0-0.1,0-0.2,0-0.3c0-0.1,0-0.1,0-0.2c0-0.1,0-0.2,0-0.3c0-0.3-0.1-0.5-0.1-0.8
		c0-0.1,0-0.2-0.1-0.3c0-0.1-0.1-0.2-0.1-0.4c0-0.2-0.1-0.4-0.2-0.5c-0.4-0.9-0.9-1.7-1.6-2.4c0-0.1-0.1-0.2-0.2-0.2
		c-0.2-0.2-0.4-0.3-0.6-0.5c0-0.1-0.1-0.1-0.2-0.1c-0.2-0.1-0.4-0.2-0.6-0.3c-0.2-0.2-0.4-0.3-0.6-0.3c-0.3-0.1-0.7-0.2-1-0.3
		c-0.1-0.1-0.2-0.1-0.3-0.1c-0.2,0-0.5-0.1-0.7-0.1c-0.1,0-0.2,0-0.2,0c-0.1,0-0.2,0-0.3,0c-0.2,0-0.3,0-0.5,0c-0.2,0-0.3,0-0.5,0
		c-0.1,0-0.3,0-0.4,0c-0.8,0.1-1.6,0.2-2.4,0.5c-1.1,0.4-2.1,1.1-2.8,2c-0.6,0.7-1.1,1.6-1.4,2.5c-0.3,0.7-0.4,1.5-0.5,2.2
		c0,0.1,0,0.3,0,0.4c0,0.4,0,0.8,0,1.2c0,0.1,0,0.3,0,0.4c0,0.3,0,0.7,0.1,1c0.1,0.6,0.3,1.2,0.5,1.7c0.3,0.7,0.7,1.3,1.2,1.9
		c0.6,0.7,1.4,1.3,2.3,1.6c0.7,0.3,1.4,0.5,2.1,0.6c0.1,0,0.2,0,0.3,0c0.1,0,0.1,0,0.2,0c0.1,0,0.2,0,0.2,0c0.2,0,0.3,0,0.5,0
		c0.2,0,0.5,0,0.7,0c0.2,0,0.3,0,0.5,0c0.1,0,0.2,0,0.2,0c0,0,0.1,0,0.1,0c0.1,0,0.2,0,0.2,0c0.4-0.1,0.7-0.2,1.1-0.2
		c0.1,0,0.2,0,0.2-0.1c0.2-0.1,0.4-0.2,0.6-0.2c0.1,0,0.2,0,0.2-0.1c0.2-0.1,0.3-0.2,0.5-0.2c0.1,0,0.2,0,0.2-0.1
		c0.5-0.4,1.1-0.8,1.6-1.3c0.1,0,0.1-0.1,0.1-0.1c0.2-0.3,0.5-0.7,0.7-1c0.1-0.1,0.2-0.2,0.2-0.3c0.2-0.5,0.5-1,0.6-1.6
		c0.1-0.1,0.2-0.3,0.1-0.4c0.1-0.3,0.1-0.5,0.2-0.8c0-0.1,0-0.2,0-0.3c0-0.1,0-0.1,0-0.2c0-0.1,0-0.2,0-0.2c0-0.2,0-0.3,0-0.5
		c0-0.3,0-0.5,0-0.8C77.8,93.6,77.8,93.5,77.8,93.3z M74.2,99.1c-0.6,1.2-1.4,2.1-2.6,2.6c-1.7,0.7-3.7,0.2-5-1.3
		c-0.9-1-1.4-2.1-1.7-3.4c-0.4-2-0.4-4.1,0.2-6.1c0.3-1.1,0.8-2.2,1.7-3c1.6-1.6,4.1-1.7,5.9-0.3c1.1,0.9,1.7,2,2.1,3.3
		c0.3,1.1,0.5,2.2,0.5,3.3C75.2,96,75,97.6,74.2,99.1z"/>
	<path id="XMLID_147_" class="st0" d="M44.7,101.6c-0.3,0-0.5-0.1-0.6-0.3c-0.5-0.4-0.8-0.9-1-1.4c-0.6-1.3-1.2-2.6-1.7-3.9
		c-0.5-1.2-1-2.4-1.6-3.6c-0.6-1.4-1.3-2.9-1.9-4.3c-0.2-0.5-0.5-1.1-0.7-1.6c-0.2-0.1-0.3,0-0.5,0c-0.2,0.4-0.3,0.7-0.5,1.1
		c-0.4,1-0.9,2-1.3,3c-0.3,0.7-0.6,1.5-1,2.2c-0.3,0.7-0.7,1.5-1,2.2c-0.4,0.9-0.8,1.7-1.1,2.6c-0.4,0.9-0.7,1.7-1.2,2.6
		c-0.3,0.5-0.7,1.1-1.3,1.4c-0.3,0.1-0.5,0.3-0.4,0.7c0.1,0,0.2,0,0.3,0c0.1,0,0.2,0,0.3,0c0.2-0.1,0.4,0,0.6,0c0.7,0,1.4,0,2.1,0
		c0.2,0,0.4,0,0.6,0c0.1,0,0.2,0,0.3,0c0.1,0,0.2,0.1,0.3,0c0-0.1,0-0.2,0-0.2c0-0.2-0.1-0.3-0.3-0.3c-0.3,0-0.6-0.1-0.9-0.2
		c-0.5-0.2-0.8-0.6-0.8-1.1c0-0.1,0-0.2,0-0.3c0-0.1,0-0.3,0-0.4c0.2-1.1,0.8-2,1.2-3c0,0,0.1,0,0.1,0c2,0,4,0,6,0
		c0.1,0,0.1,0,0.2,0.1c0.1,0.1,0.1,0.3,0.2,0.5c0.2,0.3,0.3,0.7,0.5,1c0.1,0.3,0.3,0.7,0.4,1c0.2,0.5,0.4,0.9,0.5,1.4
		c0,0.3,0,0.5-0.2,0.7c-0.3,0.2-0.6,0.3-0.9,0.3c-0.1,0-0.2,0-0.3,0c-0.4,0-0.4,0-0.4,0.4c0,0,0,0.1,0,0.1c0.1,0.1,0.3,0,0.4,0
		c0.2,0,0.3,0,0.5,0c0.3-0.1,0.6,0,0.9,0c0.9,0,1.8,0,2.7,0c0.2,0,0.5,0,0.7,0c0.1,0,0.3,0,0.4,0c0.1,0,0.3,0,0.4,0
		c0-0.1,0-0.2,0-0.3C44.9,101.6,44.9,101.6,44.7,101.6z M38.7,96c-1.8,0-3.7,0-5.5,0c0,0,0,0-0.1,0c1-2.2,1.9-4.3,2.9-6.5
		c0.6,1.3,1.1,2.5,1.7,3.8c0.4,0.9,0.8,1.7,1.1,2.6C38.9,96,38.8,96,38.7,96z"/>
</g>
</svg>
