<?xml version="1.0" encoding="utf-8"?>
<!-- Generator: Adobe Illustrator 19.0.0, SVG Export Plug-In . SVG Version: 6.00 Build 0)  -->
<svg version="1.1" id="katman_1" xmlns="http://www.w3.org/2000/svg" xmlns:xlink="http://www.w3.org/1999/xlink" x="0px" y="0px"
	 viewBox="0 0 141.7 141.7" style="enable-background:new 0 0 141.7 141.7;" xml:space="preserve">
<style type="text/css">
	.st0{fill:url(#XMLID_2_);}
	.st1{fill:url(#XMLID_3_);}
	.st2{fill:url(#XMLID_4_);}
	.st3{fill:url(#XMLID_5_);}
	.st4{fill:url(#XMLID_6_);}
	.st5{fill:url(#XMLID_7_);}
	.st6{fill:url(#XMLID_8_);}
	.st7{fill:url(#XMLID_9_);}
	.st8{fill:url(#XMLID_10_);}
	.st9{fill:url(#XMLID_11_);}
	.st10{fill:url(#XMLID_12_);}
	.st11{fill:url(#XMLID_13_);}
	.st12{fill:url(#XMLID_14_);}
	.st13{fill:url(#XMLID_15_);}
	.st14{fill:url(#XMLID_16_);}
	.st15{fill:url(#XMLID_17_);}
	.st16{fill:url(#XMLID_18_);}
	.st17{fill:url(#XMLID_19_);}
	.st18{fill:url(#XMLID_20_);}
	.st19{fill:url(#XMLID_21_);}
	.st20{fill:url(#XMLID_22_);}
</style>
<g id="XMLID_31_">
	<g id="XMLID_85_">
		
			<linearGradient id="XMLID_2_" gradientUnits="userSpaceOnUse" x1="128.9744" y1="-285.0198" x2="128.9744" y2="-266.1927" gradientTransform="matrix(4.489659e-11 -1 1 4.489659e-11 307.2357 230.3412)">
			<stop  offset="0" style="stop-color:#F39200"/>
			<stop  offset="4.351932e-02" style="stop-color:#F18800"/>
			<stop  offset="0.1491" style="stop-color:#EE740F"/>
			<stop  offset="0.2699" style="stop-color:#EC6416"/>
			<stop  offset="0.4132" style="stop-color:#EA5819"/>
			<stop  offset="0.6007" style="stop-color:#E9501B"/>
			<stop  offset="1" style="stop-color:#E94E1B"/>
		</linearGradient>
		<path id="XMLID_196_" class="st0" d="M26.9,109.5V96.1H22V95c0-0.5,0.2-0.9,0.5-1.2s0.7-0.5,1.2-0.5H35v2.9h-4.8v13.4H26.9z"/>
		
			<linearGradient id="XMLID_3_" gradientUnits="userSpaceOnUse" x1="127.1582" y1="-273.2986" x2="127.1582" y2="-252.3931" gradientTransform="matrix(4.489659e-11 -1 1 4.489659e-11 307.2357 230.3412)">
			<stop  offset="0" style="stop-color:#F39200"/>
			<stop  offset="4.351932e-02" style="stop-color:#F18800"/>
			<stop  offset="0.1491" style="stop-color:#EE740F"/>
			<stop  offset="0.2699" style="stop-color:#EC6416"/>
			<stop  offset="0.4132" style="stop-color:#EA5819"/>
			<stop  offset="0.6007" style="stop-color:#E9501B"/>
			<stop  offset="1" style="stop-color:#E94E1B"/>
		</linearGradient>
		<path id="XMLID_193_" class="st1" d="M45.8,105.6h2.4c-0.3,1.3-1,2.3-2,3c-1,0.7-2.2,1.1-3.7,1.1c-1.8,0-3.2-0.6-4.2-1.7
			c-1-1.1-1.5-2.8-1.5-4.9c0-2,0.5-3.6,1.5-4.7c1-1.2,2.4-1.7,4.2-1.7c1.9,0,3.3,0.6,4.4,1.7c1,1.2,1.5,2.8,1.5,4.9
			c0,0.1,0,0.2,0,0.3s0,0.2,0,0.2c0,0.2,0,0.3,0,0.3h-8.2c0,1,0.3,1.7,0.7,2.2c0.4,0.5,1,0.8,1.8,0.8c0.5,0,1-0.1,1.4-0.3
			c0.1,0,0.2-0.1,0.3-0.2c0.1-0.1,0.2-0.2,0.3-0.3c0-0.1,0.1-0.2,0.4-0.4C45.1,105.7,45.4,105.6,45.8,105.6z M40.1,101.9h4.8
			c-0.1-0.8-0.3-1.5-0.7-1.9c-0.4-0.4-1-0.7-1.7-0.7c-0.7,0-1.3,0.2-1.7,0.7C40.4,100.5,40.1,101.1,40.1,101.9z"/>
		
			<linearGradient id="XMLID_4_" gradientUnits="userSpaceOnUse" x1="127.1347" y1="-258.9148" x2="127.1347" y2="-245.5862" gradientTransform="matrix(4.489659e-11 -1 1 4.489659e-11 307.2357 230.3412)">
			<stop  offset="0" style="stop-color:#F39200"/>
			<stop  offset="4.351932e-02" style="stop-color:#F18800"/>
			<stop  offset="0.1491" style="stop-color:#EE740F"/>
			<stop  offset="0.2699" style="stop-color:#EC6416"/>
			<stop  offset="0.4132" style="stop-color:#EA5819"/>
			<stop  offset="0.6007" style="stop-color:#E9501B"/>
			<stop  offset="1" style="stop-color:#E94E1B"/>
		</linearGradient>
		<path id="XMLID_191_" class="st2" d="M50.3,109.5v-6.1c0-1.2,0.2-2.3,0.5-3.1c0.4-0.8,0.9-1.5,1.5-2c0.6-0.5,1.3-0.8,2.1-1
			c0.8-0.2,1.6-0.3,2.5-0.3c0.1,0,0.1,0,0.2,0c0.1,0,0.2,0,0.2,0v3.3h-1.1c-0.9,0-1.6,0.2-2,0.7c-0.4,0.4-0.7,1.1-0.7,2.1v6.5H50.3z
			"/>
		
			<linearGradient id="XMLID_5_" gradientUnits="userSpaceOnUse" x1="127.1347" y1="-250.059" x2="127.1347" y2="-236.7304" gradientTransform="matrix(4.489659e-11 -1 1 4.489659e-11 307.2357 230.3412)">
			<stop  offset="0" style="stop-color:#F39200"/>
			<stop  offset="4.351932e-02" style="stop-color:#F18800"/>
			<stop  offset="0.1491" style="stop-color:#EE740F"/>
			<stop  offset="0.2699" style="stop-color:#EC6416"/>
			<stop  offset="0.4132" style="stop-color:#EA5819"/>
			<stop  offset="0.6007" style="stop-color:#E9501B"/>
			<stop  offset="1" style="stop-color:#E94E1B"/>
		</linearGradient>
		<path id="XMLID_189_" class="st3" d="M59.1,109.5v-6.1c0-1.2,0.2-2.3,0.5-3.1c0.4-0.8,0.9-1.5,1.5-2c0.6-0.5,1.3-0.8,2.1-1
			c0.8-0.2,1.6-0.3,2.5-0.3c0.1,0,0.1,0,0.2,0c0.1,0,0.2,0,0.2,0v3.3h-1.1c-0.9,0-1.6,0.2-2,0.7c-0.4,0.4-0.7,1.1-0.7,2.1v6.5H59.1z
			"/>
		
			<linearGradient id="XMLID_6_" gradientUnits="userSpaceOnUse" x1="127.1582" y1="-242.1149" x2="127.1582" y2="-222.9158" gradientTransform="matrix(4.489659e-11 -1 1 4.489659e-11 307.2357 230.3412)">
			<stop  offset="0" style="stop-color:#F39200"/>
			<stop  offset="4.351932e-02" style="stop-color:#F18800"/>
			<stop  offset="0.1491" style="stop-color:#EE740F"/>
			<stop  offset="0.2699" style="stop-color:#EC6416"/>
			<stop  offset="0.4132" style="stop-color:#EA5819"/>
			<stop  offset="0.6007" style="stop-color:#E9501B"/>
			<stop  offset="1" style="stop-color:#E94E1B"/>
		</linearGradient>
		<path id="XMLID_116_" class="st4" d="M76,109c-0.7,0.3-1.4,0.6-2.1,0.6c-0.7,0.1-1.4,0.1-2,0.1c-1.1,0-2.1-0.3-3-0.9
			c-0.8-0.6-1.3-1.6-1.3-3c0-1.3,0.4-2.3,1.2-2.8c0.8-0.6,1.8-0.9,2.9-1.1c0.2,0,0.3,0,0.6-0.1c0.2,0,0.5-0.1,0.8-0.1
			c1.4-0.2,2.1-0.6,2.1-1.2c0-0.5-0.2-0.8-0.7-0.9c-0.5-0.1-0.9-0.2-1.3-0.2c-0.4,0-0.8,0.1-1.2,0.2c-0.3,0.1-0.6,0.4-0.8,0.7H68
			c0.1-1,0.6-1.8,1.3-2.4c0.8-0.7,2.1-1.1,3.6-1.1c1.8,0,3.1,0.3,4,0.9c0.9,0.6,1.4,1.5,1.4,2.6v4.3c0,1.3-0.2,2.2-0.7,2.9
			C77.2,108.1,76.6,108.6,76,109z M75.2,103.2c-0.4,0.2-1.1,0.4-1.8,0.6l-1.1,0.2c-0.6,0.2-1,0.4-1.2,0.6c-0.2,0.3-0.3,0.7-0.3,1
			c0,0.5,0.1,0.8,0.4,1.1c0.3,0.3,0.7,0.4,1.2,0.4c0.9,0,1.6-0.3,2.1-0.8c0.5-0.5,0.8-1.2,0.8-2.1V103.2z"/>
		
			<linearGradient id="XMLID_7_" gradientUnits="userSpaceOnUse" x1="128.9744" y1="-226.8048" x2="128.9744" y2="-205.9164" gradientTransform="matrix(4.489659e-11 -1 1 4.489659e-11 307.2357 230.3412)">
			<stop  offset="0" style="stop-color:#F39200"/>
			<stop  offset="4.351932e-02" style="stop-color:#F18800"/>
			<stop  offset="0.1491" style="stop-color:#EE740F"/>
			<stop  offset="0.2699" style="stop-color:#EC6416"/>
			<stop  offset="0.4132" style="stop-color:#EA5819"/>
			<stop  offset="0.6007" style="stop-color:#E9501B"/>
			<stop  offset="1" style="stop-color:#E94E1B"/>
		</linearGradient>
		<path id="XMLID_114_" class="st5" d="M85.8,109.5l-5.6-16.2H84l3.4,12.1l3.2-10.9c0.2-0.8,0.7-1.2,1.6-1.2h2.4l-5.5,16.2H85.8z"/>
		
			<linearGradient id="XMLID_8_" gradientUnits="userSpaceOnUse" x1="128.9744" y1="-210.1751" x2="128.9744" y2="-205.3656" gradientTransform="matrix(4.489659e-11 -1 1 4.489659e-11 307.2357 230.3412)">
			<stop  offset="0" style="stop-color:#F39200"/>
			<stop  offset="4.351932e-02" style="stop-color:#F18800"/>
			<stop  offset="0.1491" style="stop-color:#EE740F"/>
			<stop  offset="0.2699" style="stop-color:#EC6416"/>
			<stop  offset="0.4132" style="stop-color:#EA5819"/>
			<stop  offset="0.6007" style="stop-color:#E9501B"/>
			<stop  offset="1" style="stop-color:#E94E1B"/>
		</linearGradient>
		<path id="XMLID_98_" class="st6" d="M97,93.3h1.7c0.4,0,0.8,0.2,1.1,0.5c0.3,0.3,0.5,0.7,0.5,1.1v1H97V93.3z M97,96.9h1.7
			c0.4,0,0.8,0.2,1.1,0.5c0.3,0.3,0.5,0.7,0.5,1.1v10.9H97V96.9z"/>
		
			<linearGradient id="XMLID_9_" gradientUnits="userSpaceOnUse" x1="128.9555" y1="-204.879" x2="128.9555" y2="-197.3381" gradientTransform="matrix(4.489659e-11 -1 1 4.489659e-11 307.2357 230.3412)">
			<stop  offset="0" style="stop-color:#F39200"/>
			<stop  offset="4.351932e-02" style="stop-color:#F18800"/>
			<stop  offset="0.1491" style="stop-color:#EE740F"/>
			<stop  offset="0.2699" style="stop-color:#EC6416"/>
			<stop  offset="0.4132" style="stop-color:#EA5819"/>
			<stop  offset="0.6007" style="stop-color:#E9501B"/>
			<stop  offset="1" style="stop-color:#E94E1B"/>
		</linearGradient>
		<path id="XMLID_90_" class="st7" d="M107.5,109.5c-1,0.1-2.2,0-3.4,0c-1.2-0.1-1.8-0.9-1.8-2.3V93.3h1.7c0.4,0,0.8,0.2,1.1,0.5
			c0.3,0.3,0.5,0.7,0.5,1.1V97h1.9v0.7c0,0.5-0.2,0.9-0.5,1.2c-0.3,0.3-0.7,0.4-1.1,0.4h-0.3v7c0,0.5,0.3,0.8,0.9,0.8h1V109.5z"/>
		
			<linearGradient id="XMLID_10_" gradientUnits="userSpaceOnUse" x1="127.1582" y1="-200.8893" x2="127.1582" y2="-181.6902" gradientTransform="matrix(4.489659e-11 -1 1 4.489659e-11 307.2357 230.3412)">
			<stop  offset="0" style="stop-color:#F39200"/>
			<stop  offset="4.351932e-02" style="stop-color:#F18800"/>
			<stop  offset="0.1491" style="stop-color:#EE740F"/>
			<stop  offset="0.2699" style="stop-color:#EC6416"/>
			<stop  offset="0.4132" style="stop-color:#EA5819"/>
			<stop  offset="0.6007" style="stop-color:#E9501B"/>
			<stop  offset="1" style="stop-color:#E94E1B"/>
		</linearGradient>
		<path id="XMLID_86_" class="st8" d="M117.2,109c-0.7,0.3-1.4,0.6-2.1,0.6c-0.7,0.1-1.4,0.1-2,0.1c-1.1,0-2.1-0.3-3-0.9
			c-0.8-0.6-1.3-1.6-1.3-3c0-1.3,0.4-2.3,1.2-2.8c0.8-0.6,1.8-0.9,2.9-1.1c0.2,0,0.3,0,0.6-0.1c0.2,0,0.5-0.1,0.8-0.1
			c1.4-0.2,2.1-0.6,2.1-1.2c0-0.5-0.2-0.8-0.7-0.9c-0.5-0.1-0.9-0.2-1.3-0.2c-0.4,0-0.8,0.1-1.2,0.2c-0.3,0.1-0.6,0.4-0.8,0.7h-3.2
			c0.1-1,0.6-1.8,1.3-2.4c0.8-0.7,2.1-1.1,3.6-1.1c1.8,0,3.1,0.3,4,0.9c0.9,0.6,1.4,1.5,1.4,2.6v4.3c0,1.3-0.2,2.2-0.7,2.9
			C118.4,108.1,117.9,108.6,117.2,109z M116.5,103.2c-0.4,0.2-1.1,0.4-1.8,0.6l-1.1,0.2c-0.6,0.2-1,0.4-1.2,0.6
			c-0.2,0.3-0.3,0.7-0.3,1c0,0.5,0.1,0.8,0.4,1.1c0.3,0.3,0.7,0.4,1.2,0.4c0.9,0,1.6-0.3,2.1-0.8c0.5-0.5,0.8-1.2,0.8-2.1V103.2z"/>
	</g>
	<g id="XMLID_72_">
		
			<linearGradient id="XMLID_11_" gradientUnits="userSpaceOnUse" x1="114.3676" y1="-258.7928" x2="114.3676" y2="-252.5169" gradientTransform="matrix(4.489659e-11 -1 1 4.489659e-11 307.2357 230.3412)">
			<stop  offset="0" style="stop-color:#3AAA35"/>
			<stop  offset="1" style="stop-color:#95C11F"/>
		</linearGradient>
		<path id="XMLID_83_" class="st9" d="M51.2,120.4h-1.7v-8.8h4.9l-0.1,0.9l-3.2,0v3.1l3,0l-0.1,0.8l-3,0.1V120.4z"/>
		
			<linearGradient id="XMLID_12_" gradientUnits="userSpaceOnUse" x1="114.3535" y1="-250.309" x2="114.3535" y2="-240.0165" gradientTransform="matrix(4.489659e-11 -1 1 4.489659e-11 307.2357 230.3412)">
			<stop  offset="0" style="stop-color:#3AAA35"/>
			<stop  offset="1" style="stop-color:#95C11F"/>
		</linearGradient>
		<path id="XMLID_80_" class="st10" d="M66.9,115.9c0,0.7-0.1,1.3-0.3,1.9c-0.2,0.6-0.4,1-0.8,1.4c-0.4,0.4-0.8,0.7-1.3,0.9
			c-0.5,0.2-1.1,0.3-1.8,0.3c-0.7,0-1.3-0.1-1.8-0.3c-0.5-0.2-0.9-0.5-1.3-0.9c-0.3-0.4-0.6-0.9-0.7-1.4c-0.2-0.6-0.2-1.2-0.2-1.9
			c0-0.7,0.1-1.3,0.2-1.9c0.2-0.5,0.4-1,0.7-1.4c0.3-0.4,0.8-0.7,1.3-0.9c0.5-0.2,1.1-0.3,1.8-0.3c0.7,0,1.3,0.1,1.8,0.3
			c0.5,0.2,1,0.5,1.3,0.9c0.3,0.4,0.6,0.9,0.8,1.4C66.8,114.6,66.9,115.3,66.9,115.9z M65.1,115.9c0-0.5,0-1-0.1-1.4
			c-0.1-0.4-0.2-0.8-0.4-1.1c-0.2-0.3-0.4-0.5-0.8-0.7c-0.3-0.2-0.7-0.2-1.1-0.2c-0.4,0-0.7,0-1,0.1c-0.3,0.1-0.6,0.2-0.8,0.3
			c-0.2,0.1-0.3,0.5-0.4,1c-0.1,0.5-0.1,1.2-0.1,2c0,0.5,0,1,0.1,1.4c0.1,0.4,0.2,0.8,0.4,1.1c0.2,0.3,0.4,0.6,0.7,0.7
			c0.3,0.2,0.7,0.3,1.1,0.3c0.4,0,0.8,0,1.1-0.1c0.3-0.1,0.5-0.2,0.7-0.3c0.1-0.1,0.2-0.2,0.2-0.4c0.1-0.2,0.1-0.4,0.2-0.7
			c0-0.3,0.1-0.6,0.1-0.9C65.1,116.7,65.1,116.3,65.1,115.9z"/>
		
			<linearGradient id="XMLID_13_" gradientUnits="userSpaceOnUse" x1="114.3535" y1="-237.4501" x2="114.3535" y2="-227.1576" gradientTransform="matrix(4.489659e-11 -1 1 4.489659e-11 307.2357 230.3412)">
			<stop  offset="0" style="stop-color:#3AAA35"/>
			<stop  offset="1" style="stop-color:#95C11F"/>
		</linearGradient>
		<path id="XMLID_76_" class="st11" d="M79.7,115.9c0,0.7-0.1,1.3-0.3,1.9c-0.2,0.6-0.4,1-0.8,1.4c-0.4,0.4-0.8,0.7-1.3,0.9
			c-0.5,0.2-1.1,0.3-1.8,0.3c-0.7,0-1.3-0.1-1.8-0.3c-0.5-0.2-0.9-0.5-1.3-0.9s-0.6-0.9-0.7-1.4s-0.2-1.2-0.2-1.9
			c0-0.7,0.1-1.3,0.2-1.9c0.2-0.5,0.4-1,0.7-1.4c0.3-0.4,0.8-0.7,1.3-0.9c0.5-0.2,1.1-0.3,1.8-0.3c0.7,0,1.3,0.1,1.8,0.3
			c0.5,0.2,1,0.5,1.3,0.9c0.3,0.4,0.6,0.9,0.8,1.4C79.7,114.6,79.7,115.3,79.7,115.9z M78,115.9c0-0.5,0-1-0.1-1.4
			c-0.1-0.4-0.2-0.8-0.4-1.1c-0.2-0.3-0.4-0.5-0.8-0.7c-0.3-0.2-0.7-0.2-1.1-0.2c-0.4,0-0.7,0-1,0.1c-0.3,0.1-0.6,0.2-0.8,0.3
			c-0.2,0.1-0.3,0.5-0.4,1c-0.1,0.5-0.1,1.2-0.1,2c0,0.5,0,1,0.1,1.4c0.1,0.4,0.2,0.8,0.4,1.1c0.2,0.3,0.4,0.6,0.7,0.7
			c0.3,0.2,0.7,0.3,1.1,0.3c0.4,0,0.8,0,1.1-0.1c0.3-0.1,0.5-0.2,0.7-0.3c0.1-0.1,0.2-0.2,0.2-0.4c0.1-0.2,0.1-0.4,0.2-0.7
			c0-0.3,0.1-0.6,0.1-0.9C77.9,116.7,78,116.3,78,115.9z"/>
		
			<linearGradient id="XMLID_14_" gradientUnits="userSpaceOnUse" x1="114.377" y1="-224.1889" x2="114.377" y2="-214.8423" gradientTransform="matrix(4.489659e-11 -1 1 4.489659e-11 307.2357 230.3412)">
			<stop  offset="0" style="stop-color:#3AAA35"/>
			<stop  offset="1" style="stop-color:#95C11F"/>
		</linearGradient>
		<path id="XMLID_73_" class="st12" d="M84.6,111.7c0.2,0,0.4,0,0.6-0.1c0.2,0,0.5,0,0.8-0.1c0.3,0,0.5,0,0.8,0c0.3,0,0.5,0,0.8,0
			c0.7,0,1.3,0.1,1.9,0.2c0.6,0.2,1,0.4,1.4,0.7c0.4,0.3,0.7,0.8,0.9,1.3c0.2,0.5,0.3,1.2,0.3,1.9c0,0.7-0.1,1.4-0.3,2
			c-0.2,0.6-0.4,1.1-0.8,1.5c-0.4,0.4-0.9,0.7-1.4,1c-0.6,0.2-1.3,0.3-2.1,0.3c-0.2,0-0.5,0-0.7,0c-0.3,0-0.5,0-0.8,0
			c-0.2,0-0.5,0-0.7,0c-0.2,0-0.4,0-0.6-0.1V111.7z M86.3,119.5c0.1,0,0.1,0,0.2,0c0.1,0,0.2,0,0.2,0c0.1,0,0.2,0,0.2,0
			c0.1,0,0.1,0,0.2,0c0.5,0,0.9,0,1.3-0.1c0.3-0.1,0.6-0.2,0.9-0.4c0.1-0.1,0.3-0.2,0.4-0.4c0.1-0.2,0.2-0.4,0.3-0.6
			s0.2-0.6,0.2-0.9c0-0.4,0.1-0.8,0.1-1.4c0-0.7-0.1-1.2-0.2-1.7c-0.2-0.4-0.4-0.8-0.7-1c-0.3-0.3-0.6-0.4-1-0.5
			c-0.4-0.1-0.8-0.1-1.2-0.1c-0.1,0-0.1,0-0.2,0c-0.1,0-0.2,0-0.2,0s-0.2,0-0.2,0c-0.1,0-0.1,0-0.2,0V119.5z"/>
	</g>
	<g id="XMLID_32_">
		<g id="XMLID_58_">
			
				<linearGradient id="XMLID_15_" gradientUnits="userSpaceOnUse" x1="159.9652" y1="-247.1773" x2="159.9652" y2="-240.1259" gradientTransform="matrix(4.489659e-11 -1 1 4.489659e-11 307.2357 230.3412)">
				<stop  offset="0" style="stop-color:#F39200"/>
				<stop  offset="4.351932e-02" style="stop-color:#F18800"/>
				<stop  offset="0.1491" style="stop-color:#EE740F"/>
				<stop  offset="0.2699" style="stop-color:#EC6416"/>
				<stop  offset="0.4132" style="stop-color:#EA5819"/>
				<stop  offset="0.6007" style="stop-color:#E9501B"/>
				<stop  offset="1" style="stop-color:#E94E1B"/>
			</linearGradient>
			<path id="XMLID_67_" class="st13" d="M64.6,88.1c-1-0.7-1.5-1.6-1.4-2.7c0.1-2.2,0.4-4.5,0.5-6.7c0.1-1.8,0.3-3.6,0.4-5.5
				c0.1-1.9,0.1-3.8,0.1-5.7c0-0.9-0.3-1.6-0.9-2.2c-0.2-0.2-0.4-0.4-0.7-0.5c-0.3-0.1-0.6-0.2-0.5-0.6c0,0-0.1-0.1-0.1-0.1
				c-1-1.1-1.4-2.4-1.6-3.8c-0.3-1.9,0-3.8,1-5.5c0.6-1,1.3-1.7,2.4-2c1.1-0.3,2.1,0,2.9,0.8c1,0.9,1.6,2.1,1.8,3.4
				c0.5,2.2,0.3,4.4-0.9,6.3c-0.1,0.2-0.3,0.4-0.5,0.7c-0.1,0.2-0.1,0.3-0.2,0.5c-0.1,0.1-0.1,0.2-0.2,0.3c-1.2,0.5-1.8,1.5-1.8,2.7
				c0,2.6,0.1,5.1,0.2,7.7c0.1,2,0.3,4.1,0.4,6.1c0.1,1.2,0.2,2.4,0.3,3.7C66.2,86.2,65.8,87.3,64.6,88.1z M67.9,62
				c0.1-0.1,0.1-0.1,0.1-0.1c0-0.1,0-0.1,0.1-0.2c0.5-1.2,0.6-2.4,0.4-3.7c-0.1-1.3-0.5-2.4-1.3-3.5c-0.5-0.6-1-1.1-1.7-1.4
				c-0.1-0.1-0.3-0.1-0.5-0.1c1.3,0.5,2.1,1.4,2.6,2.6c0.4,1,0.6,2.1,0.6,3.1C68.4,59.9,68.2,60.9,67.9,62z M60.7,60.4
				c0.2,1.2,0.5,2.3,1.3,3.3c0.1,0.2,0.3,0.3,0.3,0.6c0,0,0.1,0.1,0.1,0.2c0.6,0.2,1.1,0.6,1.4,1.2c-0.2-0.5-0.5-0.8-0.9-1.2
				c-0.2-0.2-0.6-0.3-0.5-0.7c0,0-0.1-0.1-0.1-0.2C61.5,62.6,61,61.6,60.7,60.4z M65.1,87.3c0.7-0.8,0.8-1.7,0.7-2.7
				c0,0.5,0,0.9-0.1,1.4C65.5,86.4,65.3,86.8,65.1,87.3z"/>
			
				<linearGradient id="XMLID_16_" gradientUnits="userSpaceOnUse" x1="159.9902" y1="-239.1234" x2="159.9902" y2="-232.4588" gradientTransform="matrix(4.489659e-11 -1 1 4.489659e-11 307.2357 230.3412)">
				<stop  offset="0" style="stop-color:#F39200"/>
				<stop  offset="4.351932e-02" style="stop-color:#F18800"/>
				<stop  offset="0.1491" style="stop-color:#EE740F"/>
				<stop  offset="0.2699" style="stop-color:#EC6416"/>
				<stop  offset="0.4132" style="stop-color:#EA5819"/>
				<stop  offset="0.6007" style="stop-color:#E9501B"/>
				<stop  offset="1" style="stop-color:#E94E1B"/>
			</linearGradient>
			<path id="XMLID_63_" class="st14" d="M68.5,85.2c0.1-0.4,0.3-1.1,0.4-1.9c0.9-3.9,1.8-7.7,2.5-11.6c0.1-0.7,0.2-1.4,0.3-2.2
				c0-0.3,0-0.6-0.1-0.9c-0.3-1.5-0.3-2.9-0.2-4.4c0.2-2.6,0.7-5.1,1.6-7.5c0.4-1,0.8-2,1.5-2.9c0.3-0.3,0.6-0.6,1-0.8
				c0.5-0.3,1,0,0.9,0.6c0,0.6-0.2,1.2-0.3,1.8c-0.4,2.6-0.8,5.2-1.3,7.8c-0.4,2-0.8,3.9-1.2,5.9c-0.3,1.5-0.5,2.9-0.7,4.4
				c-0.3,2.2-0.6,4.5-0.9,6.7c-0.2,1.7-0.4,3.3-0.6,5c-0.1,1.1-0.7,2-1.7,2.5c-0.2,0.1-0.3,0-0.4-0.1C68.7,87.1,68.4,86.3,68.5,85.2
				z M69.9,87.2c0.7-0.4,1.3-1.7,1.2-2.6C71,85.6,70.6,86.5,69.9,87.2z M73.4,69.6c-0.6-0.1-1.1-0.2-1.6-0.3
				C72,69.6,73,69.8,73.4,69.6z"/>
			
				<linearGradient id="XMLID_17_" gradientUnits="userSpaceOnUse" x1="159.975" y1="-256.6339" x2="159.975" y2="-249.2003" gradientTransform="matrix(4.489659e-11 -1 1 4.489659e-11 307.2357 230.3412)">
				<stop  offset="0" style="stop-color:#F39200"/>
				<stop  offset="4.351932e-02" style="stop-color:#F18800"/>
				<stop  offset="0.1491" style="stop-color:#EE740F"/>
				<stop  offset="0.2699" style="stop-color:#EC6416"/>
				<stop  offset="0.4132" style="stop-color:#EA5819"/>
				<stop  offset="0.6007" style="stop-color:#E9501B"/>
				<stop  offset="1" style="stop-color:#E94E1B"/>
			</linearGradient>
			<path id="XMLID_59_" class="st15" d="M54.4,52.8c0,0.1,0.1,0.1,0.1,0.2c0.7,3,1.5,5.9,2.2,8.9c0,0.2,0.1,0.3-0.1,0.5
				c-1.1,0.8-1.5,1.9-1.3,3.2c0.7,3.2,1.3,6.5,2,9.7c0.7,3.2,1.6,6.5,2.4,9.7c0.3,1.1,0,2-0.7,2.8c-0.2,0.2-0.3,0.2-0.5,0.1
				c-1-0.6-1.5-1.4-1.6-2.5c-0.4-3.5-0.7-6.9-1.1-10.4c-0.3-2.8-0.8-5.7-1.2-8.5c-0.1-0.8-0.2-1.6-0.8-2.3c-0.5-0.5-1-0.9-1.6-1.1
				C52,63.1,52,63,52,62.8c-0.2-1.6-0.3-3.2-0.5-4.8c-0.2-1.5-0.3-2.9-0.5-4.4c0-0.1,0-0.1,0-0.2c0.7,2.5,1.2,5.1,1.8,7.6
				c0.1,0,0.1,0,0.2,0c-0.3-2.6-0.6-5.1-0.9-7.7c0,0,0.1,0,0.1,0c0.6,2.5,1.2,5,1.8,7.6c0.1,0,0.1,0,0.2,0c-0.3-2.6-0.6-5.2-0.9-7.7
				c0,0,0.1,0,0.1,0c0.6,2.5,1.2,5.1,1.8,7.6c0.1,0,0.1,0,0.2,0C55,58,54.7,55.4,54.4,52.8z M56.3,60.7c0,0-0.1,0-0.1,0
				c0.4,0.8,0.1,1.5-0.5,2.1c0.3-0.2,0.5-0.4,0.8-0.6c0.1-0.1,0.1-0.2,0.1-0.3C56.5,61.5,56.4,61.1,56.3,60.7z M57.3,84.9
				c-0.1,0.8,0.5,2.1,1.2,2.5C57.7,86.7,57.4,85.9,57.3,84.9z"/>
		</g>
		<g id="XMLID_33_">
			
				<linearGradient id="XMLID_18_" gradientUnits="userSpaceOnUse" x1="140.0714" y1="-236.4472" x2="182.5963" y2="-236.4472" gradientTransform="matrix(4.489659e-11 -1 1 4.489659e-11 307.2357 230.3412)">
				<stop  offset="0" style="stop-color:#3AAA35"/>
				<stop  offset="1" style="stop-color:#95C11F"/>
			</linearGradient>
			<path id="XMLID_55_" class="st16" d="M110.1,63.8c-3.4-1.4-7.2-2-10.9-1.5c-3.7,0.5-7.4,2-10,4.7c-3.7,3.6-5.3,8.7-6.5,13.7
				c1.7-2,3.4-3.8,5.3-5.6c1.9-1.8,4-3.6,6.5-4.4c-2.9,0.9-5,3.5-6.9,5.7c-0.9,1.1-1.8,2.3-2.7,3.4C83.9,81,82.4,82,81.1,83
				c-8.4,6.5-20.7,5.8-28.6-1.2c-3.7-3.3-6.3-7.9-7.2-12.8c-0.1-0.7-0.3-1.5-0.8-2.1c-0.2,1.1-1.1,1.9-1.4,2.9
				c-0.3,0.9-0.1,2,0.2,2.9c1.9,6,6.4,10.9,11.8,14.2c-1.2-0.7-3.2-0.5-4.5-1c-1.7-0.6-3.3-1.4-4.9-2.4c-3-2-5.6-4.7-7.3-7.9
				c-0.3-0.5-0.5-1.1-0.3-1.7c0.2-0.4,0.6-0.7,0.9-0.9c3.8-2.6,6.1-7.5,5.1-12c-0.5-2.3-1.8-4.4-2.9-6.5c-1.1-2.1-2-4.5-1.7-6.8
				c-3.3,1.6-6,4.6-7.3,8c-2.4,6.5,0.5,12.9,4.3,18.2c0.1-0.2,0.2-0.3,0.4-0.5c-0.7,0.9,1.2,3.4,1.7,4.2c0.9,1.6,1.9,3.1,3.1,4.4
				c6,6.5,15.7,9,24.2,7.9c7-0.8,13.7-4.1,18.6-9.1c-0.4,0.5-0.6,1.1-0.6,1.7c5.5,1.5,12.1,1,16-3.1c2.2-2.3,3.3-5.4,4.6-8.3
				s3-5.9,5.8-7.4C110.2,63.8,110.1,63.8,110.1,63.8z M36.6,70c-0.1,0.4-0.3,0.9-0.4,1.2c-1.7-2.9-1.1-8.1,0.1-11.1
				c-0.2,0.6,0.1,1.9,0.1,2.6c0,1.4,0,2.7,0,4.1c0,0.4,0,0.7,0.1,1.1c0.1,0.3,0.2,0.6,0.3,0.9C36.8,69.2,36.7,69.6,36.6,70z"/>
			
				<linearGradient id="XMLID_19_" gradientUnits="userSpaceOnUse" x1="163.9584" y1="-219.2822" x2="185.1731" y2="-219.2822" gradientTransform="matrix(4.489659e-11 -1 1 4.489659e-11 307.2357 230.3412)">
				<stop  offset="0" style="stop-color:#3AAA35"/>
				<stop  offset="1" style="stop-color:#95C11F"/>
			</linearGradient>
			<path id="XMLID_53_" class="st17" d="M85.9,57.8c0.1-0.5,0.3-1,0.4-1.4c-0.9,1-1.1,2.7-1.4,4c-0.4,1.6-0.6,3.1-0.7,4.7
				c0,0.4-0.2,0.5-0.4,0.1c-0.2-0.4-0.4-0.8-0.5-1.1c-0.8-1.9-1.1-4.1-1.1-6.1c0-0.6,0-1.3,0.1-1.9c0.1-0.6,0.3-1.2,0.3-1.7
				c0.3-1.1,0.8-2.2,1.5-3.1c1-1.6,2.4-2.9,4-3.9c0.8-0.5,1.6-0.9,2.5-1.3c0.4-0.2,0.9-0.3,1.3-0.5c0.3-0.1,1-0.4,1.2-0.1
				c0.3,0.4-0.1,1.1-0.3,1.5c-0.2,0.6-0.3,1.2-0.3,1.8c0,0.9,0.3,1.7,0.4,2.6c0.3,1.4,0.6,2.8,0.8,4.2c0.2,2.2-0.2,4.6-1.5,6.5
				c-0.1,0.1-0.1,0.2-0.2,0.3c-0.7,1-1.7,1.9-2.7,2.6c-0.6,0.4-1.3,0.7-1.9,1.1c-0.4,0.2-1.3,0.8-1.8,0.6c-0.4-0.2-0.4-0.7-0.4-1
				c0-1.7-0.1-3.4,0.2-5.1C85.5,59.4,85.7,58.6,85.9,57.8z"/>
			
				<linearGradient id="XMLID_20_" gradientUnits="userSpaceOnUse" x1="186.7825" y1="-235.4207" x2="201.5415" y2="-235.4207" gradientTransform="matrix(4.489659e-11 -1 1 4.489659e-11 307.2357 230.3412)">
				<stop  offset="0" style="stop-color:#3AAA35"/>
				<stop  offset="1" style="stop-color:#95C11F"/>
			</linearGradient>
			<path id="XMLID_42_" class="st18" d="M68.2,37.1c0.1-0.2,0.3-0.3,0.5-0.5c0,0,0.1-0.1,0.1-0.2c0-0.2-0.3-0.1-0.4,0
				c-1.4,1.4-2.8,3.1-3.8,4.8c-0.2,0.3-0.4,0.7-0.7,0.8c-0.3,0.1,0-0.6,0-0.6c0.2-0.5,0.1-1.1,0.2-1.6c0.1-0.6,0.3-1.1,0.4-1.7
				c0.5-1.7,1.2-3.3,2.2-4.7c1-1.4,2.2-2.5,3.7-3.3c0.8-0.4,1.7-0.8,2.6-1c1.7-0.3,3.3-0.5,5-0.5c0.2,0,0.4,0,0.5,0
				c0.4,0.1,1.2,0,1.4,0.4c0.4,0.4-0.6,1-0.9,1.4c-2,2.3-2,5.3-3.2,8c-0.5,1.1-1.2,2-2.1,2.8c-1.6,1.4-3.7,2.2-5.8,2.2
				c-1.1,0-2.2,0-3.2,0C65.5,41.2,66.5,39,68.2,37.1z"/>
			
				<linearGradient id="XMLID_21_" gradientUnits="userSpaceOnUse" x1="352.741" y1="-305.0068" x2="372.4299" y2="-305.0068" gradientTransform="matrix(1 0 0 1 -309.073 350.7708)">
				<stop  offset="0" style="stop-color:#3AAA35"/>
				<stop  offset="1" style="stop-color:#95C11F"/>
			</linearGradient>
			<path id="XMLID_40_" class="st19" d="M61.2,38.9c-0.2-0.3-0.5-0.7-0.7-1c-0.5-0.7-1.1-1.3-1.9-1.7c1.7,1.7,3.1,3.8,3.9,6
				c0,0.1,0.1,0.2,0.1,0.3c0,0.5-0.4,0.8-0.9,0.9c-0.5,0-0.9-0.1-1.4-0.2c-0.7-0.1-1.2,0.2-1.8,0.5c-0.7,0.3-1.5,0.7-2.2,1.1
				c-1.4,0.8-2.7,1.8-3.9,2.9c-0.5,0.5-1.1,1-1.5,1.5c-1,1.1-1.9,2.2-2.6,3.4c-0.8,1.3-1.4,2.6-1.9,4c-0.3,0.7-0.5,1.4-0.7,2.2
				c-0.2,0.7-0.2,1.5-0.5,2.1c-0.3,0.6-0.4-0.4-0.5-0.6c-0.1-0.5-0.3-1.1-0.6-1.6c-0.2-0.5-0.5-0.9-0.3-1.5c0.1-0.6,0.5-1,0.8-1.5
				c0.1-0.3,0.3-0.6,0.4-0.9c2.4-4.6,6.1-8.3,10.8-10.5c0.9-0.4,1.8-0.8,2.7-1.2c-0.3,0.1-1.3-0.6-1.5-0.7c-0.5-0.3-1-0.5-1.5-0.9
				c-1.6-1.4-2.1-3.7-2.6-5.7c-0.4-1.6-0.9-3.3-2.1-4.5c-0.1-0.1-0.2-0.2-0.2-0.4c0-0.1,0.1-0.2,0.3-0.2c1.7-0.6,3.5-0.3,5.2,0.2
				c1.1,0.3,2.2,0.6,3.2,1.3c1.5,1,2.4,2.7,3.2,4.3c0.3,0.5,0.5,1.1,0.6,1.7c0,0.2,0,0.4,0.1,0.7c0,0.2,0.1,0.3,0.1,0.5
				c0.2,0.9,0.2,1.9,0,2.8C62.6,41.1,62,40,61.2,38.9z"/>
			
				<linearGradient id="XMLID_22_" gradientUnits="userSpaceOnUse" x1="195.8086" y1="-243.7403" x2="207.7217" y2="-243.7403" gradientTransform="matrix(4.489659e-11 -1 1 4.489659e-11 307.2357 230.3412)">
				<stop  offset="0" style="stop-color:#3AAA35"/>
				<stop  offset="1" style="stop-color:#95C11F"/>
			</linearGradient>
			<path id="XMLID_34_" class="st20" d="M64.4,33.1c-0.2,0.3-0.1,1.5-0.7,1.5c-0.2,0-0.3-0.1-0.4-0.2c-0.7-0.5-1.3-1-1.8-1.7
				c-1-1.2-1.3-2.9-0.9-4.4c0.2-0.9,0.7-1.7,1-2.6c0.2-0.6,0.3-1.1,0.4-1.7c0.1-0.5-0.5-1.7,0.5-1.3c0.8,0.4,1.6,0.9,2.3,1.5
				c0.4,0.4,0.8,0.9,1.1,1.5c0.2,0.4,0.3,0.7,0.5,1.1c0.4,1.2,0.4,2.5,0.2,3.7c-0.1,0.4-0.2,0.8-0.3,1.1c-0.1,0.3-1.2,2.9-1.5,2.4
				c-0.1-0.1,0-0.3,0-0.5C64.7,33.4,64.6,33.2,64.4,33.1z"/>
		</g>
	</g>
</g>
</svg>
