<?xml version="1.0" encoding="utf-8"?>
<!-- Generator: Adobe Illustrator 16.0.0, SVG Export Plug-In . SVG Version: 6.00 Build 0)  -->
<!DOCTYPE svg PUBLIC "-//W3C//DTD SVG 1.1//EN" "http://www.w3.org/Graphics/SVG/1.1/DTD/svg11.dtd">
<svg version="1.1" id="Layer_1" xmlns="http://www.w3.org/2000/svg" xmlns:xlink="http://www.w3.org/1999/xlink" x="0px" y="0px"
	 width="158px" height="31px" viewBox="0 0 158 31" enable-background="new 0 0 158 31" xml:space="preserve">
<g>
	<g>
		<g>
			<defs>
				<path id="SVGID_1_" d="M56.368,12.823h1.268c0.354,0,0.634,0.094,0.843,0.29c0.207,0.198,0.311,0.469,0.311,0.81
					c0,0.346-0.104,0.615-0.311,0.799c-0.208,0.19-0.489,0.283-0.843,0.272h-1.268V12.823z M53.023,9.748v11.674h3.334v-3.664h0.832
					l1.849,3.664h3.574l-2.306-4.35c0.57-0.344,1.007-0.803,1.33-1.351c0.322-0.562,0.477-1.173,0.477-1.869
					c0-1.237-0.415-2.224-1.246-2.981c-0.832-0.749-1.891-1.123-3.168-1.123H53.023z"/>
			</defs>
			<clipPath id="SVGID_2_">
				<use xlink:href="#SVGID_1_"  overflow="visible"/>
			</clipPath>
			
				<linearGradient id="SVGID_3_" gradientUnits="userSpaceOnUse" x1="-78.2383" y1="-959.5225" x2="-74.8572" y2="-959.5225" gradientTransform="matrix(0 -3.6113 3.6113 0 3522.9258 -260.8125)">
				<stop  offset="0" style="stop-color:#010101"/>
				<stop  offset="0.5" style="stop-color:#010101"/>
				<stop  offset="0.5" style="stop-color:#585857"/>
				<stop  offset="1" style="stop-color:#585857"/>
			</linearGradient>
			<rect x="53.023" y="9.748" clip-path="url(#SVGID_2_)" fill="url(#SVGID_3_)" width="9.599" height="11.674"/>
		</g>
	</g>
	<g>
		<g>
			<defs>
				<path id="SVGID_4_" d="M48.193,9.768v7.406c0,0.877-0.479,1.301-1.422,1.301c-0.946,0-1.425-0.438-1.425-1.301V9.768h-3.334
					v7.773c0,1.244,0.437,2.252,1.32,3.018c0.881,0.771,2.025,1.156,3.439,1.156c1.412,0,2.555-0.385,3.437-1.156
					c0.883-0.766,1.32-1.773,1.32-3.018V9.768H48.193z"/>
			</defs>
			<clipPath id="SVGID_5_">
				<use xlink:href="#SVGID_4_"  overflow="visible"/>
			</clipPath>
			
				<linearGradient id="SVGID_6_" gradientUnits="userSpaceOnUse" x1="-78.2397" y1="-961.6777" x2="-74.8572" y2="-961.6777" gradientTransform="matrix(0 -3.6113 3.6113 0 3519.6563 -260.8125)">
				<stop  offset="0" style="stop-color:#010101"/>
				<stop  offset="0.5" style="stop-color:#010101"/>
				<stop  offset="0.5" style="stop-color:#585857"/>
				<stop  offset="1" style="stop-color:#585857"/>
			</linearGradient>
			<rect x="42.012" y="9.768" clip-path="url(#SVGID_5_)" fill="url(#SVGID_6_)" width="9.516" height="11.947"/>
		</g>
	</g>
	<g>
		<g>
			<defs>
				<polygon id="SVGID_7_" points="33.171,9.768 33.171,21.443 40.849,21.443 40.849,18.383 36.507,18.383 36.507,17.082 
					40.351,17.082 40.351,14.071 36.507,14.071 36.507,12.802 40.766,12.802 40.766,9.768 				"/>
			</defs>
			<clipPath id="SVGID_8_">
				<use xlink:href="#SVGID_7_"  overflow="visible"/>
			</clipPath>
			
				<linearGradient id="SVGID_9_" gradientUnits="userSpaceOnUse" x1="-78.2388" y1="-963.5811" x2="-74.8572" y2="-963.5811" gradientTransform="matrix(0 -3.6113 3.6113 0 3516.7695 -260.8125)">
				<stop  offset="0" style="stop-color:#010101"/>
				<stop  offset="0.5" style="stop-color:#010101"/>
				<stop  offset="0.5" style="stop-color:#585857"/>
				<stop  offset="1" style="stop-color:#585857"/>
			</linearGradient>
			<rect x="33.171" y="9.768" clip-path="url(#SVGID_8_)" fill="url(#SVGID_9_)" width="7.678" height="11.676"/>
		</g>
	</g>
	<g>
		<g>
			<defs>
				<path id="SVGID_10_" d="M95.024,13.694l0.965,3.585h-1.934L95.024,13.694z M93.069,9.768l-3.718,11.676h3.584l0.406-1.506h3.365
					l0.402,1.506h3.584L96.975,9.768H93.069z"/>
			</defs>
			<clipPath id="SVGID_11_">
				<use xlink:href="#SVGID_10_"  overflow="visible"/>
			</clipPath>
			
				<linearGradient id="SVGID_12_" gradientUnits="userSpaceOnUse" x1="-78.2388" y1="-952.2666" x2="-74.8572" y2="-952.2666" gradientTransform="matrix(0 -3.6113 3.6113 0 3533.9238 -260.8125)">
				<stop  offset="0" style="stop-color:#010101"/>
				<stop  offset="0.5" style="stop-color:#010101"/>
				<stop  offset="0.5" style="stop-color:#585857"/>
				<stop  offset="1" style="stop-color:#585857"/>
			</linearGradient>
			<rect x="89.352" y="9.768" clip-path="url(#SVGID_11_)" fill="url(#SVGID_12_)" width="11.342" height="11.676"/>
		</g>
	</g>
	<g>
		<g>
			<defs>
				<path id="SVGID_13_" d="M69.511,12.802c0.621,0.083,1.162,0.343,1.599,0.78c0.394,0.394,0.632,0.85,0.748,1.394h3.377
					c-0.136-1.447-0.717-2.683-1.767-3.711c-1.09-1.071-2.41-1.652-3.956-1.746V12.802z"/>
			</defs>
			<clipPath id="SVGID_14_">
				<use xlink:href="#SVGID_13_"  overflow="visible"/>
			</clipPath>
			
				<linearGradient id="SVGID_15_" gradientUnits="userSpaceOnUse" x1="-78.2681" y1="-956.6445" x2="-74.8842" y2="-956.6445" gradientTransform="matrix(0 -3.6097 3.6097 0 3525.5215 -260.8223)">
				<stop  offset="0" style="stop-color:#010101"/>
				<stop  offset="0.5" style="stop-color:#010101"/>
				<stop  offset="0.5" style="stop-color:#585857"/>
				<stop  offset="1" style="stop-color:#585857"/>
			</linearGradient>
			<rect x="69.511" y="9.519" clip-path="url(#SVGID_14_)" fill="url(#SVGID_15_)" width="5.713" height="5.457"/>
		</g>
	</g>
	<g>
		<g>
			<defs>
				<path id="SVGID_16_" d="M71.857,16.199c-0.104,0.551-0.354,1.027-0.748,1.434c-0.437,0.436-0.978,0.693-1.599,0.777v3.295
					c1.537-0.092,2.855-0.674,3.956-1.746c1.061-1.039,1.642-2.283,1.767-3.75h-3.377V16.199z"/>
			</defs>
			<clipPath id="SVGID_17_">
				<use xlink:href="#SVGID_16_"  overflow="visible"/>
			</clipPath>
			
				<linearGradient id="SVGID_18_" gradientUnits="userSpaceOnUse" x1="-78.2676" y1="-956.6436" x2="-74.8834" y2="-956.6436" gradientTransform="matrix(0 -3.6097 3.6097 0 3525.5234 -260.8223)">
				<stop  offset="0" style="stop-color:#010101"/>
				<stop  offset="0.5" style="stop-color:#010101"/>
				<stop  offset="0.5" style="stop-color:#585857"/>
				<stop  offset="1" style="stop-color:#585857"/>
			</linearGradient>
			<rect x="69.511" y="16.199" clip-path="url(#SVGID_17_)" fill="url(#SVGID_18_)" width="5.723" height="5.496"/>
		</g>
	</g>
	<g>
		<g>
			<defs>
				<path id="SVGID_19_" d="M64.668,11.265c-1.05,1.028-1.642,2.274-1.766,3.739h3.365c0.104-0.552,0.354-1.018,0.749-1.412
					c0.426-0.426,0.935-0.675,1.527-0.769V9.529C67.036,9.633,65.739,10.204,64.668,11.265"/>
			</defs>
			<clipPath id="SVGID_20_">
				<use xlink:href="#SVGID_19_"  overflow="visible"/>
			</clipPath>
			
				<linearGradient id="SVGID_21_" gradientUnits="userSpaceOnUse" x1="-78.2725" y1="-957.9438" x2="-74.8895" y2="-957.9438" gradientTransform="matrix(0 -3.6097 3.6097 0 3523.5586 -260.8184)">
				<stop  offset="0" style="stop-color:#010101"/>
				<stop  offset="0.5" style="stop-color:#010101"/>
				<stop  offset="0.5" style="stop-color:#585857"/>
				<stop  offset="1" style="stop-color:#585857"/>
			</linearGradient>
			<rect x="62.893" y="9.519" clip-path="url(#SVGID_20_)" fill="url(#SVGID_21_)" width="5.641" height="5.475"/>
		</g>
	</g>
	<g>
		<g>
			<defs>
				<path id="SVGID_22_" d="M62.893,16.17c0.115,1.471,0.707,2.744,1.765,3.779c1.071,1.059,2.37,1.629,3.875,1.746v-3.291
					c-0.592-0.096-1.101-0.348-1.527-0.771c-0.405-0.406-0.656-0.895-0.758-1.463H62.893z"/>
			</defs>
			<clipPath id="SVGID_23_">
				<use xlink:href="#SVGID_22_"  overflow="visible"/>
			</clipPath>
			
				<linearGradient id="SVGID_24_" gradientUnits="userSpaceOnUse" x1="-78.2725" y1="-957.9419" x2="-74.8906" y2="-957.9419" gradientTransform="matrix(0 -3.6097 3.6097 0 3523.5566 -260.8184)">
				<stop  offset="0" style="stop-color:#010101"/>
				<stop  offset="0.5" style="stop-color:#010101"/>
				<stop  offset="0.5" style="stop-color:#585857"/>
				<stop  offset="1" style="stop-color:#585857"/>
			</linearGradient>
			<rect x="62.893" y="16.17" clip-path="url(#SVGID_23_)" fill="url(#SVGID_24_)" width="5.651" height="5.525"/>
		</g>
	</g>
	<g>
		<g>
			<defs>
				<polygon id="SVGID_25_" points="99.866,9.768 99.866,13.008 102.615,13.008 102.615,21.443 105.952,21.443 105.952,13.008 
					108.701,13.008 108.701,9.768 				"/>
			</defs>
			<clipPath id="SVGID_26_">
				<use xlink:href="#SVGID_25_"  overflow="visible"/>
			</clipPath>
			
				<linearGradient id="SVGID_27_" gradientUnits="userSpaceOnUse" x1="-78.2388" y1="-950.4604" x2="-74.8572" y2="-950.4604" gradientTransform="matrix(0 -3.6113 3.6113 0 3536.6621 -260.8125)">
				<stop  offset="0" style="stop-color:#010101"/>
				<stop  offset="0.5" style="stop-color:#010101"/>
				<stop  offset="0.5" style="stop-color:#585857"/>
				<stop  offset="1" style="stop-color:#585857"/>
			</linearGradient>
			<rect x="99.866" y="9.768" clip-path="url(#SVGID_26_)" fill="url(#SVGID_27_)" width="8.835" height="11.676"/>
		</g>
	</g>
	<g>
		<g>
			<defs>
				<polygon id="SVGID_28_" points="85.34,9.768 82.591,14.526 79.836,9.768 76.501,9.768 76.501,21.443 79.836,21.443 
					79.836,15.76 82.442,20.125 82.746,20.125 85.34,15.76 85.34,21.443 88.684,21.443 88.684,9.768 				"/>
			</defs>
			<clipPath id="SVGID_29_">
				<use xlink:href="#SVGID_28_"  overflow="visible"/>
			</clipPath>
			
				<linearGradient id="SVGID_30_" gradientUnits="userSpaceOnUse" x1="-78.2388" y1="-954.6914" x2="-74.8572" y2="-954.6914" gradientTransform="matrix(0 -3.6113 3.6113 0 3530.25 -260.8125)">
				<stop  offset="0" style="stop-color:#010101"/>
				<stop  offset="0.5" style="stop-color:#010101"/>
				<stop  offset="0.5" style="stop-color:#585857"/>
				<stop  offset="1" style="stop-color:#585857"/>
			</linearGradient>
			<rect x="76.501" y="9.768" clip-path="url(#SVGID_29_)" fill="url(#SVGID_30_)" width="12.183" height="11.676"/>
		</g>
	</g>
	<g>
		<path fill="#717070" d="M112.307,11.69h2.018c1.153,0,1.934,0.051,2.337,0.156c0.573,0.145,1.05,0.437,1.414,0.873
			c0.359,0.447,0.551,0.996,0.551,1.663c0,0.675-0.177,1.223-0.541,1.661c-0.354,0.438-0.851,0.729-1.473,0.884
			c-0.46,0.112-1.312,0.165-2.567,0.165h-0.72v4.697h-1.005V11.69H112.307z M113.318,12.676v3.43l1.702,0.021
			c0.693,0,1.195-0.063,1.518-0.191c0.32-0.12,0.568-0.333,0.759-0.612c0.184-0.279,0.27-0.59,0.27-0.943
			c0-0.346-0.093-0.644-0.27-0.926c-0.19-0.279-0.427-0.478-0.729-0.603c-0.304-0.113-0.791-0.177-1.477-0.177H113.318z"/>
		<path fill="#717070" d="M123.143,11.69h2.015c1.124,0,1.88,0.041,2.276,0.134c0.601,0.136,1.088,0.437,1.463,0.884
			c0.374,0.447,0.563,1.007,0.563,1.663c0,0.548-0.124,1.028-0.386,1.453c-0.258,0.417-0.622,0.728-1.109,0.948
			c-0.478,0.219-1.146,0.32-1.994,0.32l3.626,4.684h-1.247l-3.637-4.684h-0.572v4.684h-1.007V11.69H123.143z M124.154,12.676v3.43
			l1.731,0.007c0.674,0,1.173-0.06,1.498-0.198c0.318-0.12,0.568-0.332,0.757-0.608c0.176-0.282,0.269-0.593,0.269-0.947
			c0-0.342-0.093-0.645-0.269-0.924c-0.188-0.281-0.425-0.479-0.718-0.594c-0.3-0.113-0.789-0.176-1.484-0.176h-1.784V12.676z"/>
		<rect x="133.926" y="11.69" fill="#717070" width="1.007" height="10.099"/>
		<polygon fill="#717070" points="139.705,21.775 139.705,11.69 139.92,11.69 146.643,19.422 146.643,11.69 147.639,11.69 
			147.639,21.775 147.409,21.775 140.75,14.131 140.75,21.775 		"/>
		<polygon fill="#717070" points="151.544,12.676 151.544,11.69 157.071,11.69 157.071,12.676 154.828,12.676 154.828,21.775 
			153.8,21.775 153.8,12.676 		"/>
	</g>
	<g>
		<g>
			<g>
				<defs>
					<path id="SVGID_31_" d="M7.139,6.652C7.107,6.591,7.077,6.497,7.107,6.403c0.032-0.072,0.115-0.136,0.229-0.167l8.735-2.11
						c0.042-0.01,0.094-0.02,0.136-0.02c0.281,0,0.571,0.186,0.707,0.437c2.917,5.826,8.445,7.541,11.343,8.05l-8.664,3.947
						C12.635,15.577,8.572,9.312,7.139,6.652 M15.833,3.152L7.097,5.25C6.671,5.354,6.339,5.624,6.173,5.988
						C6.017,6.339,6.038,6.767,6.236,7.129c1.516,2.815,5.858,9.472,13.358,10.451c0.021,0,0.042,0,0.063,0
						c0.073,0,0.145-0.021,0.207-0.039l10.461-4.771c0.217-0.094,0.333-0.332,0.29-0.571c-0.052-0.228-0.249-0.394-0.488-0.405
						c-0.083,0-8.56-0.176-12.321-7.697c-0.3-0.603-0.964-0.999-1.62-0.999C16.072,3.109,15.959,3.12,15.833,3.152"/>
				</defs>
				<clipPath id="SVGID_32_">
					<use xlink:href="#SVGID_31_"  overflow="visible"/>
				</clipPath>
				
					<linearGradient id="SVGID_33_" gradientUnits="userSpaceOnUse" x1="-67.5371" y1="-982.3169" x2="-64.0913" y2="-982.3169" gradientTransform="matrix(0 -4.2026 4.2026 0 4146.627 -266.2422)">
					<stop  offset="0" style="stop-color:#010101"/>
					<stop  offset="0.5" style="stop-color:#010101"/>
					<stop  offset="0.5" style="stop-color:#585857"/>
					<stop  offset="1" style="stop-color:#585857"/>
				</linearGradient>
				<rect x="6.017" y="3.109" clip-path="url(#SVGID_32_)" fill="url(#SVGID_33_)" width="24.662" height="14.481"/>
			</g>
		</g>
		<g>
			<g>
				<defs>
					<rect id="SVGID_34_" x="0.928" y="21.816" width="18.47" height="1.072"/>
				</defs>
				<clipPath id="SVGID_35_">
					<use xlink:href="#SVGID_34_"  overflow="visible"/>
				</clipPath>
				
					<linearGradient id="SVGID_36_" gradientUnits="userSpaceOnUse" x1="-937.7124" y1="-166.1104" x2="-934.2515" y2="-166.1104" gradientTransform="matrix(0 -0.3108 0.3108 0 61.7971 -268.5942)">
					<stop  offset="0" style="stop-color:#1F9DD9"/>
					<stop  offset="0.5" style="stop-color:#1F9DD9"/>
					<stop  offset="0.5056" style="stop-color:#1EB0E6"/>
					<stop  offset="1" style="stop-color:#1EB0E6"/>
				</linearGradient>
				<rect x="0.928" y="21.816" clip-path="url(#SVGID_35_)" fill="url(#SVGID_36_)" width="18.47" height="1.072"/>
			</g>
		</g>
		<g>
			<g>
				<defs>
					<polygon id="SVGID_37_" points="19.667,21.816 19.667,22.889 30.138,18.15 30.138,17.082 					"/>
				</defs>
				<clipPath id="SVGID_38_">
					<use xlink:href="#SVGID_37_"  overflow="visible"/>
				</clipPath>
				
					<linearGradient id="SVGID_39_" gradientUnits="userSpaceOnUse" x1="-172.0498" y1="-880.0371" x2="-168.606" y2="-880.0371" gradientTransform="matrix(0 -1.6862 1.6862 0 1508.7813 -267.2188)">
					<stop  offset="0" style="stop-color:#1F9DD9"/>
					<stop  offset="0.5" style="stop-color:#1F9DD9"/>
					<stop  offset="0.5056" style="stop-color:#1EB0E6"/>
					<stop  offset="1" style="stop-color:#1EB0E6"/>
				</linearGradient>
				<rect x="19.667" y="17.082" clip-path="url(#SVGID_38_)" fill="url(#SVGID_39_)" width="10.472" height="5.807"/>
			</g>
		</g>
		<g>
			<g>
				<defs>
					<path id="SVGID_40_" d="M27.417,16.707l-7.812,3.732h-0.343c-4.727,0-8.528-0.834-11.364-1.82l-6.97,2.816h18.5l10.71-4.729
						H27.417z"/>
				</defs>
				<clipPath id="SVGID_41_">
					<use xlink:href="#SVGID_40_"  overflow="visible"/>
				</clipPath>
				
					<linearGradient id="SVGID_42_" gradientUnits="userSpaceOnUse" x1="-211.123" y1="-845.998" x2="-207.6729" y2="-845.998" gradientTransform="matrix(0 -1.3707 1.3707 0 1175.1201 -267.959)">
					<stop  offset="0" style="stop-color:#E5087E"/>
					<stop  offset="0.6" style="stop-color:#E5087E"/>
					<stop  offset="0.6" style="stop-color:#E95397"/>
					<stop  offset="1" style="stop-color:#E95397"/>
				</linearGradient>
				<rect x="0.928" y="16.707" clip-path="url(#SVGID_41_)" fill="url(#SVGID_42_)" width="29.21" height="4.729"/>
			</g>
		</g>
		<g>
			<g>
				<defs>
					<path id="SVGID_43_" d="M3.004,14.205c-0.509,0.226-0.56,0.693-0.094,0.997c2.027,1.279,7.709,4.259,16.58,4.22l10.338-4.938
						c0,0-0.563,0-1.465-0.018l-8.83,4.03l-0.145-0.021c-5.049-0.657-8.653-3.874-10.919-6.733L3.004,14.205z"/>
				</defs>
				<clipPath id="SVGID_44_">
					<use xlink:href="#SVGID_43_"  overflow="visible"/>
				</clipPath>
				
					<linearGradient id="SVGID_45_" gradientUnits="userSpaceOnUse" x1="-128.8403" y1="-923.9473" x2="-125.3933" y2="-923.9473" gradientTransform="matrix(0 -2.2283 2.2283 0 2074.998 -267.6855)">
					<stop  offset="0" style="stop-color:#FDEC0A"/>
					<stop  offset="0.5" style="stop-color:#FDEC0A"/>
					<stop  offset="0.5056" style="stop-color:#FEF386"/>
					<stop  offset="1" style="stop-color:#FEF386"/>
				</linearGradient>
				<rect x="2.444" y="11.731" clip-path="url(#SVGID_44_)" fill="url(#SVGID_45_)" width="27.384" height="7.729"/>
			</g>
		</g>
	</g>
</g>
</svg>
